<?xml version="1.0" encoding="UTF-8"?>
<svg xmlns="http://www.w3.org/2000/svg" xmlns:xlink="http://www.w3.org/1999/xlink" width="1440pt" height="809.999993pt" viewBox="0 0 1440 809.999993" version="1.2">
<defs>
<clipPath id="clip1">
  <path d="M 82 50.578125 L 778 50.578125 L 778 711 L 82 711 Z M 82 50.578125 "/>
</clipPath>
<clipPath id="clip2">
  <path d="M 394 751 L 396 751 L 396 761.578125 L 394 761.578125 Z M 394 751 "/>
</clipPath>
</defs>
<g id="surface1">
<g clip-path="url(#clip1)" clip-rule="nonzero">
<path style=" stroke:none;fill-rule:nonzero;fill:rgb(100%,39.99939%,76.858521%);fill-opacity:1;" d="M 572.167969 489.011719 C 573.167969 488.953125 574.058594 488.925781 575.253906 488.871094 C 572.976562 487.148438 572.976562 487.148438 572.167969 489.011719 Z M 93.136719 411.21875 C 90.359375 410.21875 91.191406 410.300781 90.054688 411.300781 C 91.191406 412.328125 90.359375 412.4375 93.136719 411.21875 Z M 322.746094 449.601562 C 325.886719 450.792969 325.886719 450.792969 326.136719 449.265625 C 324.96875 449.378906 323.859375 449.488281 322.746094 449.601562 Z M 404.96875 696.589844 C 402.191406 697.0625 403.886719 699.0625 402.914062 700.003906 C 403.109375 700.089844 403.332031 700.144531 403.527344 700.226562 C 403.96875 699.089844 404.441406 697.949219 404.96875 696.589844 Z M 417.976562 597.742188 C 417.890625 597.9375 417.835938 598.160156 417.753906 598.355469 C 418.390625 598.882812 419.003906 599.410156 419.949219 600.242188 C 420.171875 599.1875 420.308594 598.546875 420.476562 597.742188 C 419.449219 597.742188 418.699219 597.742188 417.976562 597.742188 Z M 635.773438 378.5 C 631.882812 377.25 631.882812 377.25 630.21875 378.5 C 632.050781 378.5 633.578125 378.5 635.773438 378.5 Z M 625.355469 378.445312 C 627.6875 378.332031 627.6875 378.332031 628.410156 376.945312 C 625.660156 377.167969 625.660156 377.167969 625.355469 378.445312 Z M 380.433594 492.289062 C 378.542969 494.066406 379.324219 495.59375 380.433594 497.148438 C 380.433594 495.59375 380.433594 494.066406 380.433594 492.289062 Z M 436.816406 565.5 C 434.007812 566.554688 435.148438 569.859375 437.425781 568.246094 C 437.261719 567.441406 437.066406 566.527344 436.816406 565.5 Z M 404.886719 683.507812 C 407.304688 682.589844 407.304688 682.589844 407.445312 680.453125 C 405.082031 680.953125 405.082031 680.953125 404.886719 683.507812 Z M 688.65625 429.074219 C 687.015625 428.378906 685.429688 428.242188 683.707031 429.546875 C 685.652344 430.714844 687.15625 429.824219 688.65625 429.074219 Z M 416.808594 546.390625 C 417.03125 544.890625 417.195312 543.613281 417.390625 542.335938 C 417.140625 542.25 416.863281 542.167969 416.613281 542.058594 C 416.003906 543.167969 415.363281 544.28125 414.640625 545.558594 C 415.558594 545.917969 416.085938 546.140625 416.808594 546.390625 Z M 637.441406 378.167969 C 639.136719 378.277344 640.777344 379.859375 643.195312 378.5 C 640.972656 377.695312 639.277344 377.359375 637.441406 378.167969 Z M 467.296875 499.09375 C 464.378906 501.839844 467.324219 505.675781 467.769531 503.535156 C 468.046875 502.148438 468.800781 500.675781 467.296875 499.09375 Z M 359.203125 449.238281 C 359.34375 450.351562 359.425781 451.183594 359.539062 452.183594 C 360.898438 452.097656 362.175781 452.320312 362.148438 450.628906 C 362.121094 448.933594 360.816406 449.210938 359.203125 449.238281 Z M 112.253906 401.828125 C 112.253906 402.105469 112.28125 402.386719 112.28125 402.664062 C 115.3125 402.191406 118.367188 401.691406 121.398438 401.21875 C 121.371094 400.96875 121.3125 400.71875 121.285156 400.496094 C 118.285156 400.941406 115.257812 401.386719 112.253906 401.828125 Z M 414.5 554.804688 C 412.863281 557.25 412.722656 558.054688 413.5 559.777344 C 415.363281 557.636719 415.363281 557.636719 414.5 554.804688 Z M 425.367188 595.214844 C 424.28125 594.242188 423.671875 593.6875 422.671875 592.742188 C 422.144531 594.492188 421.726562 595.800781 421.335938 597.105469 C 421.503906 597.214844 421.671875 597.300781 421.835938 597.382812 C 422.867188 596.769531 423.867188 596.132812 425.367188 595.214844 Z M 697.878906 422.519531 C 700.855469 422.355469 703.242188 422.242188 706.246094 422.078125 C 702.132812 420.769531 699.882812 420.828125 697.878906 422.519531 Z M 695.683594 383.164062 C 694.90625 381.859375 694.710938 381.609375 694.210938 381.886719 C 693.019531 382.609375 691.015625 382.054688 690.488281 384.054688 C 693.683594 384.359375 693.683594 384.359375 695.683594 383.164062 Z M 103.695312 425.019531 C 104.253906 426.214844 103.695312 428.046875 105.835938 427.742188 C 107.699219 427.464844 109.449219 422.714844 103.695312 425.019531 Z M 612.183594 375.777344 C 612.515625 376.75 612.574219 377.472656 612.824219 377.554688 C 614.601562 378.082031 616.433594 378.359375 618.714844 377.777344 C 616.933594 375.417969 614.683594 376.222656 612.183594 375.777344 Z M 393.1875 501.285156 C 393.410156 501.230469 393.605469 501.175781 393.800781 501.121094 C 393.632812 499.121094 395.246094 497.203125 393.882812 494.925781 C 393.355469 495.175781 392.882812 495.398438 392.382812 495.621094 C 393.523438 498.035156 390.769531 498.257812 393.1875 501.285156 Z M 646.527344 378.722656 C 647.835938 378.945312 657.894531 380.445312 658.367188 379.222656 C 655.226562 378.054688 648.417969 377.804688 646.527344 378.722656 Z M 420.003906 608.1875 C 420.585938 610.4375 420.585938 610.4375 423.8125 610.101562 C 425.285156 607.214844 425.199219 606.601562 423.226562 604.9375 C 422.726562 608.410156 422.726562 608.410156 420.003906 608.1875 Z M 388.824219 494.980469 C 385.214844 495.703125 383.601562 500.730469 388.824219 500.425781 C 388.824219 498.757812 388.824219 497.066406 388.824219 494.980469 Z M 198.148438 452.960938 C 199.980469 454.183594 204.761719 454.183594 211.484375 453.042969 C 208.816406 452.738281 200.09375 451.097656 198.148438 452.960938 Z M 108.671875 376.027344 C 109.308594 374.554688 110.003906 373.082031 108.753906 371.585938 C 107.421875 372 107.421875 372 107.640625 373.640625 C 106.476562 374.445312 104.640625 371.277344 103.78125 374.417969 C 104.308594 375.195312 104.890625 376.054688 105.476562 376.917969 C 106.613281 376.582031 107.640625 376.304688 108.671875 376.027344 Z M 457.40625 498.84375 C 455.851562 499.035156 454.40625 499.203125 452.875 499.371094 C 453.070312 500.925781 453.210938 502.203125 453.375 503.648438 C 454.738281 503.648438 455.988281 503.648438 457.40625 503.648438 C 457.40625 502.0625 457.40625 500.621094 457.40625 498.84375 Z M 116.089844 376.472656 C 113.253906 374.167969 111.03125 377.832031 108.476562 376.945312 C 108.363281 376.917969 108.140625 377.140625 107.808594 377.332031 C 107.949219 378.082031 108.113281 378.917969 108.253906 379.695312 C 112.671875 379.695312 110.644531 380.777344 116.089844 376.472656 Z M 103.667969 415.964844 C 107.28125 416.410156 105.890625 417.632812 111.839844 413.160156 C 112.671875 412.523438 111.089844 411.273438 110.617188 411.660156 C 107.28125 414.550781 104.113281 409.773438 103.667969 415.964844 Z M 389.992188 538.308594 C 391.992188 538.363281 391.714844 536.695312 391.855469 535.726562 C 392.273438 532.921875 393.746094 529.949219 391.160156 527.171875 C 389.105469 530.78125 389.546875 534.449219 389.992188 538.308594 Z M 437.761719 572.582031 C 435.785156 572.082031 434.980469 573.359375 434.175781 574.886719 C 436.703125 577.050781 434.34375 578.996094 433.453125 581.164062 C 436.507812 581.828125 435.757812 578.886719 436.953125 577.941406 C 437.425781 578.355469 437.898438 578.773438 438.539062 579.328125 C 439.066406 578.300781 439.484375 577.523438 440.039062 576.414062 C 439.011719 575.609375 438.011719 574.832031 436.925781 573.996094 C 437.203125 573.523438 437.453125 573.050781 437.761719 572.582031 Z M 498.726562 304.148438 C 495.558594 306.121094 496.003906 322.285156 496.003906 326.0625 C 498.894531 321.203125 496.640625 313.566406 497.949219 308.011719 C 498.53125 308.316406 498.949219 308.539062 499.335938 308.734375 C 498.585938 307.207031 501.253906 305.261719 498.726562 304.148438 Z M 106.253906 402.773438 C 100.113281 403.691406 99.082031 403.246094 98.417969 406.160156 C 102.585938 404.855469 106.613281 405.164062 110.503906 402.386719 C 108.503906 401.023438 109.171875 400.359375 103.28125 400.773438 C 102.945312 400.773438 102.667969 401.523438 102.167969 402.164062 C 103.613281 402.386719 104.667969 402.523438 106.253906 402.773438 Z M 718.777344 421.078125 C 716.914062 421.242188 715.21875 421.382812 713.21875 421.546875 C 714.496094 422.769531 722.5 425.214844 722.695312 419.855469 C 723.667969 419.632812 724.613281 419.4375 725.445312 419.242188 C 726.140625 419.800781 726.695312 420.242188 727.253906 420.714844 C 727.417969 420.546875 727.585938 420.355469 727.753906 420.1875 C 726.28125 419.105469 727.695312 416.105469 718.386719 418.519531 C 718.527344 419.464844 718.636719 420.105469 718.777344 421.078125 Z M 363.066406 329.3125 C 363.066406 334.285156 363.066406 339.0625 363.066406 343.8125 C 366.457031 344.199219 365.84375 344.644531 365.679688 330.703125 C 365.679688 329.230469 364.84375 328.8125 363.066406 329.3125 Z M 411.695312 572.332031 C 410.109375 575.082031 408.167969 577.578125 409.777344 580.886719 C 408.332031 582.273438 408 583.746094 408.667969 585.71875 C 413.917969 583.523438 411.113281 579.886719 412.863281 575.71875 C 413.472656 574.273438 413.390625 573.246094 411.695312 572.332031 Z M 378.378906 500.925781 C 378.378906 497.203125 378.378906 494.148438 378.378906 491.261719 C 373.375 491.261719 371.792969 490.84375 372.375 492.925781 C 373.738281 493.175781 375.015625 493.398438 376.488281 493.675781 C 373.210938 494.59375 374.847656 494.34375 372.207031 499.34375 C 373.738281 501.5625 376.097656 499.703125 378.378906 500.925781 Z M 108.753906 434.15625 C 106.699219 434.433594 104.945312 434.683594 102.835938 434.992188 C 103.53125 436.101562 104.003906 436.824219 104.445312 437.574219 C 121.0625 438.824219 121.121094 439.15625 123.871094 438.324219 C 122.3125 437.210938 121.121094 436.324219 120.257812 435.683594 C 116.3125 435.683594 112.699219 435.683594 109.058594 435.683594 C 108.976562 435.324219 108.894531 434.851562 108.753906 434.15625 Z M 364.261719 493.007812 C 366.289062 494.539062 366.207031 496.121094 364.816406 497.648438 C 366.261719 500.839844 367.039062 501.398438 369.597656 501.148438 C 369.402344 496.871094 368.347656 492.675781 368.402344 488.234375 C 366.816406 486.734375 365.734375 485.066406 364.457031 486.316406 C 362.511719 488.261719 364.789062 489.730469 366.679688 491.453125 C 365.902344 491.980469 365.289062 492.371094 364.261719 493.007812 Z M 355.480469 452.40625 C 355.535156 451.128906 355.59375 450.15625 355.648438 448.933594 C 347.753906 448.628906 351.171875 448.570312 342.894531 449.101562 C 341.890625 450.40625 343.421875 450.351562 337.058594 449.738281 C 336.640625 448.070312 336.5 448.542969 327.136719 449.042969 C 329.136719 452.097656 324.773438 450.90625 355.480469 452.40625 Z M 274.480469 475.984375 C 274.507812 476.289062 274.5625 476.59375 274.589844 476.929688 C 341.171875 474.511719 310.855469 476.402344 362.289062 476.402344 C 363.511719 474.597656 362.261719 473.484375 361.898438 472.429688 C 357.730469 471.984375 285.234375 473.234375 274.480469 475.984375 Z M 746.0625 423.632812 C 743.925781 424.105469 741.785156 424.574219 739.421875 425.074219 C 739.867188 425.660156 740.230469 426.074219 740.703125 426.6875 C 739.367188 426.6875 738.199219 426.6875 736.894531 426.6875 C 737.035156 426.046875 737.117188 425.492188 737.285156 424.632812 C 733.976562 423.796875 737.476562 423.464844 724.390625 425.519531 C 724.917969 425.9375 725.308594 426.242188 725.667969 426.546875 C 724.363281 428.628906 703.6875 426.6875 699.382812 428.964844 C 702.160156 432.019531 757.375 428.464844 760.515625 431.046875 C 759.679688 431.1875 735.339844 435.519531 731.976562 434.351562 C 728.976562 436.769531 731.003906 434.933594 720.554688 436.128906 C 719.75 436.242188 718.832031 436.574219 718.164062 436.324219 C 714.96875 435.101562 712.441406 437.324219 709.496094 437.351562 C 709.496094 437.628906 709.496094 437.878906 709.46875 438.15625 C 719.277344 439.296875 719.917969 436.351562 731.03125 438.101562 C 729.917969 438.460938 728.78125 438.851562 727.667969 439.242188 C 727.667969 439.378906 727.695312 439.488281 727.722656 439.601562 C 728.726562 439.601562 729.726562 439.601562 730.835938 439.601562 C 728.945312 442.960938 726.390625 438.546875 722.417969 441.460938 C 722.5 441.878906 722.613281 442.324219 722.722656 442.878906 C 721.722656 443.296875 721.027344 443.433594 720.75 442.046875 C 720.277344 439.40625 718.554688 441.878906 716.109375 442.019531 C 707.660156 442.460938 704.882812 442.074219 703.519531 441.960938 C 701.605469 445.128906 696.324219 442.15625 695.269531 444.796875 C 676.734375 447.183594 600.625 451.128906 599.789062 451.183594 C 600.847656 452.320312 618.101562 452.183594 618.9375 452.183594 C 619.1875 457.710938 585.007812 452.960938 578.199219 456.988281 C 579.117188 457.542969 603.152344 460.738281 608.710938 458.265625 C 610.847656 457.292969 619.546875 458.015625 621.601562 459.152344 C 626.6875 461.988281 625.660156 456.488281 637.554688 459.429688 C 637.609375 458.375 637.664062 457.652344 637.691406 456.738281 C 637.691406 456.738281 637.359375 458.097656 668.148438 457.152344 C 689.070312 456.515625 689.792969 456.183594 694.933594 458.597656 C 697.378906 457.765625 700.160156 457.488281 702.910156 459.125 C 704.328125 459.988281 707.300781 458.570312 710.746094 458.183594 C 710.746094 458.183594 717.109375 459.015625 727.917969 459.429688 C 733.058594 459.652344 735.449219 457.320312 739.671875 459.765625 C 737.894531 460.152344 695.019531 465.375 692.324219 467.511719 C 714.523438 467.511719 697.742188 472.679688 716.527344 466.765625 C 713.21875 470.402344 709.855469 472.097656 705.550781 471.761719 C 705.410156 471.761719 633.941406 476.316406 633.550781 476.152344 C 634.941406 476.066406 636.359375 476.011719 637.777344 475.957031 C 637.777344 475.679688 637.804688 475.375 637.832031 475.097656 C 636.996094 474.957031 585.894531 473.957031 570.5 478.789062 C 570.5 479.011719 570.472656 479.234375 570.472656 479.457031 C 571.308594 479.621094 572.140625 479.789062 573.363281 480.039062 C 571.085938 481.34375 568.554688 480.734375 566.527344 482.316406 C 564.859375 483.566406 562.25 483.59375 559.386719 484.34375 C 562.582031 485.648438 565 486.148438 567.75 485.011719 C 568.917969 484.539062 570.558594 483.621094 571.945312 485.148438 C 572.222656 485.457031 573.003906 485.59375 573.390625 485.425781 C 575.726562 484.539062 578.085938 485.398438 580.421875 485.261719 C 581.253906 485.234375 585.507812 483.648438 588.175781 486.09375 C 590.871094 488.539062 592.257812 483.734375 595.09375 486.316406 C 595.511719 486.703125 602.539062 487.039062 604.320312 485.425781 C 604.625 485.148438 605.542969 485.34375 606.070312 485.566406 C 611.015625 487.675781 613.824219 484.039062 626.382812 485.066406 C 624.1875 488.59375 626.800781 486.234375 612.574219 488.316406 C 609.15625 486.457031 605.597656 487.648438 602.097656 487.925781 C 599.84375 488.09375 600.429688 486.34375 598.621094 488.84375 C 595.675781 488.148438 592.789062 487.566406 590.175781 489.703125 C 589.8125 489.566406 589.785156 489.175781 589.648438 488.761719 C 587.175781 489.175781 584.730469 489.59375 582.257812 489.925781 C 579.839844 490.261719 577.03125 488.09375 574.921875 490.121094 C 574.921875 490.121094 569.335938 489.703125 566.195312 490.453125 C 560.054688 491.953125 566.667969 491.289062 560.46875 492.371094 C 560.859375 491.648438 561 491.316406 561.191406 490.953125 C 558.441406 489.59375 556.246094 491.230469 554.164062 492.539062 C 550.746094 488.316406 549.214844 492.34375 548.382812 492.257812 C 544.574219 491.816406 540.601562 492.953125 536.90625 490.898438 C 532.378906 495.648438 529.125 489.789062 527.570312 495.066406 C 526.734375 495.007812 513.535156 493.730469 506.589844 496.035156 C 506.921875 496.59375 507.144531 496.980469 507.535156 497.648438 C 505.617188 498.371094 503.785156 499.0625 501.894531 499.757812 C 500.921875 498.730469 500.808594 496.566406 498.753906 497.757812 C 498.863281 498.230469 498.976562 498.730469 499.113281 499.425781 C 496.390625 499.703125 494.167969 500.589844 493.28125 503.589844 C 495.503906 504.589844 497.613281 505.5625 499.644531 506.480469 C 501.003906 505.648438 500.53125 503.203125 502.699219 503.867188 C 502.421875 504.589844 502.144531 505.339844 501.839844 506.230469 C 506.617188 506.839844 511.148438 507.425781 515.703125 508.007812 C 515.621094 508.3125 515.59375 508.617188 515.539062 508.617188 C 511.675781 508.5625 507.894531 509.007812 504.257812 510.3125 C 502.253906 509.285156 494.140625 510.394531 494.167969 514.144531 C 493.53125 513.117188 493.195312 512.535156 492.75 511.8125 C 491.667969 512.117188 490.640625 512.421875 489.167969 512.839844 C 489.25 514.449219 489.332031 516.089844 489.417969 517.699219 C 490.5 517.8125 491.308594 517.867188 492.085938 517.921875 C 492.113281 518.171875 492.113281 518.394531 492.140625 518.644531 C 491.363281 518.839844 490.585938 519.035156 489.640625 519.253906 C 489.417969 521.671875 487.609375 524.058594 489.140625 526.726562 L 489.222656 526.644531 C 487.832031 527.867188 487.777344 526.28125 489.25 533.390625 C 490.335938 532.558594 491.085938 530.726562 493.140625 531.449219 C 493.335938 533.085938 493.753906 534.726562 492.667969 536.53125 C 491.75 535.976562 490.972656 535.476562 489.75 534.726562 C 488.667969 538.113281 489.585938 544.722656 487.890625 550.863281 C 486.777344 550.085938 486.082031 549.554688 485.222656 548.945312 C 486.804688 546.75 487.5 544.53125 486.667969 541.835938 C 484.75 542.695312 483.582031 543.75 483.304688 556.417969 C 483.277344 557.609375 481.832031 558.804688 483.472656 560.277344 C 485.695312 553.390625 486.25 555.304688 485.527344 552.222656 C 486.304688 551.890625 487.082031 551.582031 487.972656 551.222656 C 488.109375 551.722656 488.363281 552.054688 488.277344 552.25 C 485.859375 558.472656 491.972656 559.582031 486.082031 564.859375 C 485.359375 562.386719 486.609375 560.195312 485.386719 558.109375 C 483.582031 559.359375 485.082031 561.136719 484.304688 562.386719 C 483.722656 562.386719 482.21875 561.359375 482.636719 562.832031 C 483.554688 565.96875 481.777344 568.609375 481.96875 571.832031 C 484.582031 573.996094 487.554688 567.054688 488.222656 566.109375 C 488.640625 568.746094 490.585938 571.359375 487.640625 573.914062 C 487.25 573.359375 486.832031 572.832031 486.332031 572.164062 C 482.96875 572.941406 479.582031 573.023438 480.832031 577.773438 C 480.886719 577.96875 481.082031 578.21875 481.054688 578.273438 C 478.859375 580.191406 479.96875 583.273438 478.300781 585.828125 C 477.164062 582.191406 478.71875 578.996094 478.746094 575.609375 C 478.21875 575.496094 477.664062 575.359375 477.105469 575.246094 C 477.414062 573.773438 479.96875 575.773438 479.691406 566.191406 C 479.359375 566.914062 479.023438 567.636719 478.636719 568.496094 C 477.050781 566.804688 478.46875 561.636719 478.886719 559.359375 C 479.332031 559.527344 479.886719 559.777344 480.746094 560.109375 C 480.164062 556.722656 477.300781 557.972656 480.582031 556.109375 C 480.664062 556.054688 480.664062 555.945312 480.691406 555.859375 C 480.21875 554.75 479.71875 553.667969 479.023438 552.082031 C 478.46875 554.75 477.96875 557.054688 477.441406 559.582031 C 476.664062 559.332031 475.941406 559.109375 475.300781 558.914062 C 475.191406 558.386719 477.414062 537.253906 477.46875 537.03125 C 476.46875 532.808594 477.050781 528.363281 477.105469 523.78125 C 471.714844 533.113281 474.523438 553.277344 469.410156 554.25 C 472.9375 521.367188 471.6875 519.726562 469.300781 521.8125 C 470.273438 523.867188 470.464844 525.894531 469.769531 528.117188 C 465.601562 541.753906 472.382812 539.613281 464.992188 544.03125 C 465.574219 541.890625 466.019531 540.222656 466.464844 538.585938 C 467.296875 535.308594 464.992188 537.363281 467.855469 533.808594 C 466.574219 531.421875 466.714844 530.585938 468.6875 528.558594 C 467.132812 528.085938 467.132812 528.085938 466.132812 525.117188 C 466.632812 524.753906 467.160156 524.367188 467.605469 524.058594 C 467.660156 523.367188 467.882812 524.03125 466.410156 521.367188 C 469.019531 515.699219 469.660156 515.921875 466.796875 514.089844 C 467.464844 512.894531 468.105469 511.671875 468.992188 510.089844 C 467.660156 510.367188 466.714844 510.5625 465.714844 510.785156 C 461.851562 555.554688 461.992188 530.199219 459.738281 552.054688 C 460.269531 552.304688 460.851562 552.613281 461.628906 553.027344 C 460.65625 563.777344 461.242188 565.96875 457.542969 566 C 457.128906 568.332031 456.628906 570.46875 456.378906 572.609375 C 456.042969 575.332031 459.65625 577.023438 457.183594 580.691406 C 454.933594 584.050781 456.90625 589.632812 454.988281 591.632812 C 453.792969 592.882812 453.347656 595.605469 452.652344 598.382812 C 453.183594 599.046875 455.042969 599.632812 453.65625 601.214844 C 448.292969 600.742188 456.15625 581.355469 456.15625 563.777344 C 456.933594 564.136719 457.515625 564.386719 458.546875 564.859375 C 458.128906 560.554688 456.515625 562.972656 457.238281 559.136719 C 457.40625 558.277344 458.824219 547.027344 458.628906 544.417969 C 457.265625 545.113281 455.960938 545.777344 454.488281 546.527344 C 454.488281 539.53125 457.460938 519.8125 456.570312 511.203125 C 456.351562 508.894531 453.542969 510.203125 453.292969 511.035156 C 451.238281 518.003906 453.515625 512.257812 452.542969 525.894531 C 451.542969 524.53125 451.015625 522.753906 448.875 522.976562 C 448.875 523.503906 448.875 524.058594 448.875 524.726562 C 448.402344 524.726562 447.957031 524.726562 447.429688 524.726562 C 447.429688 525.03125 447.347656 525.394531 447.457031 525.617188 C 449.542969 529.78125 447.152344 528.226562 445.429688 532.113281 C 446.207031 531.78125 446.539062 531.640625 446.875 531.476562 C 447.152344 531.890625 445.820312 540.28125 445.707031 540.753906 C 445.566406 541.363281 444.539062 541.808594 443.84375 542.363281 C 443.84375 543.695312 443.84375 545.085938 443.84375 546.613281 C 444.34375 546.667969 444.816406 546.722656 445.679688 546.863281 C 442.816406 559.304688 441.316406 551 439.984375 558.582031 C 440.929688 557.527344 441.429688 556.945312 442.039062 556.25 C 442.59375 557.222656 442.734375 555.945312 441.316406 562.164062 C 442.039062 561.941406 442.484375 561.804688 443.011719 561.636719 C 444.375 563.054688 443.234375 564.386719 443.121094 565.554688 C 438.148438 567.582031 439.398438 566.664062 438.984375 569.527344 C 439.175781 569.582031 439.398438 569.664062 439.59375 569.746094 C 440.039062 569.277344 440.457031 568.832031 440.929688 568.332031 C 442.402344 569.136719 442.679688 570.304688 441.984375 572.136719 C 441.789062 571.359375 441.707031 570.941406 441.539062 570.359375 C 437.34375 570.996094 446.347656 585.132812 436.453125 588.9375 C 436.757812 588.160156 437.066406 587.410156 437.398438 586.46875 C 436.621094 586.773438 435.980469 586.996094 435.316406 587.21875 C 436.816406 582.828125 438.953125 586.105469 439.707031 583.71875 C 437.121094 582.300781 437.789062 583.078125 437.539062 580.46875 C 434.007812 583.21875 433.230469 586.800781 433.398438 591.132812 C 434.621094 590.214844 435.59375 589.523438 436.539062 588.828125 C 437.121094 589.355469 437.675781 589.882812 438.425781 590.578125 C 437.371094 592.464844 438.34375 595.269531 435.59375 596.964844 C 435.316406 594.742188 438.09375 593.523438 436.566406 591.105469 C 434.285156 594.132812 435.316406 592.214844 432.507812 598.046875 C 432.785156 598.105469 433.339844 598.242188 433.898438 598.355469 C 433.675781 599.132812 433.371094 599.328125 430.339844 600.574219 C 432.035156 604.132812 430.339844 601.742188 430.5625 609.019531 C 432.675781 607.1875 431.507812 604.992188 432.703125 603.4375 C 433.621094 603.796875 434.535156 604.160156 435.148438 604.410156 C 434.980469 605.632812 434.84375 606.660156 434.675781 607.796875 C 434.34375 607.714844 433.785156 607.546875 433.121094 607.351562 C 431.398438 609.046875 432.980469 612.324219 429.8125 613.378906 C 432.703125 614.128906 432.757812 612.296875 433.230469 610.824219 C 433.675781 612.796875 433.453125 614.460938 431.175781 615.324219 C 432.117188 618.628906 432.339844 621.710938 429.644531 624.210938 L 429.703125 624.292969 C 429.703125 622.128906 429.703125 619.933594 429.703125 617.40625 C 428.867188 618.046875 428.339844 618.460938 427.699219 618.933594 C 428.867188 623.324219 427.199219 627.40625 426.367188 631.765625 C 432.3125 634.183594 424.28125 633.15625 425.5625 641.457031 C 426.003906 640.402344 426.3125 639.679688 426.699219 638.765625 C 429.421875 641.738281 424.753906 645.957031 423.03125 647.875 C 423.617188 648.070312 424.0625 648.207031 424.753906 648.457031 C 423.671875 654.316406 419.890625 653.261719 423.144531 656.761719 C 422.003906 657.679688 422.617188 657.34375 420.921875 657.957031 C 421.226562 659.148438 421.503906 660.234375 421.808594 661.429688 C 418.890625 662.261719 420.949219 665.789062 419.28125 667.398438 C 417.976562 667.09375 416.726562 666.816406 415.503906 666.511719 C 415.808594 665.648438 416.167969 664.539062 416.667969 663.121094 C 416.835938 664.011719 416.945312 664.539062 417.113281 665.371094 C 418.417969 664.371094 417.78125 663.066406 418.226562 662.148438 C 416.113281 660.816406 416.113281 660.816406 416.835938 657.984375 L 416.808594 658.039062 C 417.140625 658.09375 417.78125 658.261719 417.808594 658.179688 C 419.976562 652.847656 419.335938 653.875 418.949219 651.429688 C 421.171875 649.402344 421.171875 649.402344 419.335938 647.457031 C 421.78125 645.375 419.558594 641.929688 421.671875 639.570312 C 420.449219 636.597656 422.117188 633.820312 422.558594 631.070312 C 423.199219 627.238281 423.058594 617.738281 423.058594 614.214844 C 420.558594 613.714844 419.058594 629.042969 420.753906 631.710938 C 418.558594 630.488281 418.558594 630.488281 419.140625 628.210938 C 417.753906 628.347656 418.335938 628.320312 416.78125 628.320312 C 415.363281 636.320312 415.695312 638.292969 413.277344 639.707031 C 412.277344 645.097656 411.363281 646.261719 414.222656 646.597656 C 413.445312 647.261719 412.945312 647.707031 412.472656 648.125 C 413.640625 650.761719 413.222656 654.652344 411.277344 659.289062 C 410.863281 658.984375 410.472656 658.734375 410.140625 658.484375 C 408.582031 659.871094 411.304688 661.871094 411.222656 662.707031 C 410.695312 668.566406 409.554688 668.175781 408.722656 668.789062 C 409.25 669.011719 409.582031 669.148438 410.027344 669.34375 C 408.945312 676.925781 407.886719 684.507812 406.804688 692.117188 C 406.582031 692.117188 406.359375 692.117188 406.164062 692.117188 C 405.941406 688.421875 405.859375 690.117188 406.5 685.730469 C 403.304688 687.203125 405.082031 690.480469 403.027344 692.367188 C 404.21875 693.089844 405.164062 693.671875 406.386719 694.421875 C 405.777344 697.449219 405.164062 700.644531 404.441406 704.28125 C 403.71875 703.226562 403.21875 702.558594 402.359375 701.339844 C 401.859375 703.921875 401.46875 705.921875 401.023438 708.171875 C 398.46875 708.144531 396.273438 709.558594 393.800781 710.421875 C 393.6875 708.976562 393.578125 707.613281 393.464844 706.226562 L 393.382812 706.308594 C 394.410156 706.085938 394.882812 704.699219 396.410156 705.308594 C 397.246094 705.644531 398.523438 704.835938 399.691406 704.503906 C 399.941406 703.558594 400.164062 702.589844 400.414062 701.53125 C 399.746094 701.144531 399.191406 700.839844 398.46875 700.421875 C 399.328125 699.617188 401.46875 700.617188 400.886719 698.449219 C 400.136719 698.3125 399.300781 698.171875 398.023438 697.921875 C 399.078125 696.5625 398.691406 694.726562 400.773438 694.507812 C 400.773438 692.339844 398.050781 690.394531 400.46875 687.921875 C 400.746094 687.839844 401.386719 687.671875 402.441406 687.421875 C 401.441406 686.617188 400.746094 686.035156 399.828125 685.285156 C 400.746094 684.839844 401.46875 684.480469 401.96875 684.203125 C 401.746094 682.203125 401.523438 680.480469 401.332031 678.730469 C 400.664062 678.730469 400.164062 678.730469 399.609375 678.730469 C 399.550781 677.703125 399.078125 676.453125 399.496094 675.703125 C 400.050781 674.703125 400.578125 673.84375 400.386719 672.648438 C 400.164062 671.453125 403.777344 672.007812 401.191406 668.980469 C 400.914062 668.648438 400.96875 668.039062 400.832031 667.34375 C 404.527344 666.898438 403.746094 663.316406 406.5 644.152344 C 406.582031 643.570312 408.554688 632.183594 408.886719 628.820312 C 408.109375 629.378906 407.527344 629.765625 406.527344 630.488281 C 406.527344 606.824219 412.277344 604.546875 409.054688 602.269531 C 410.890625 598.1875 411.5 594.105469 410.195312 589.800781 C 407.414062 591.773438 406.695312 593.242188 407.445312 595.492188 C 405.441406 597.300781 406.164062 596.714844 404.609375 597.578125 C 403.691406 602.160156 403.636719 606.714844 401.441406 610.824219 C 403.996094 612.324219 403.832031 610.4375 405.136719 605.019531 C 405.609375 609.851562 405.136719 614.074219 403.691406 618.15625 C 403.441406 618.101562 403.164062 618.074219 402.914062 618.046875 C 403.136719 616.296875 403.386719 614.519531 403.609375 612.769531 C 399.441406 614.851562 394.328125 673.730469 389.1875 684.980469 C 388.4375 684.953125 387.769531 684.894531 387.074219 684.839844 C 389.546875 684.644531 398.328125 599.910156 398.441406 599.078125 C 396.996094 598.796875 395.746094 598.546875 394.246094 598.269531 C 393.6875 599.964844 393.132812 601.660156 392.578125 603.351562 C 392.410156 603.324219 392.273438 603.324219 392.105469 603.324219 C 392.105469 599.519531 395.496094 579.386719 394.855469 578.855469 C 395.996094 577.691406 394.355469 575.941406 395.773438 574.773438 C 396.132812 574.496094 396.273438 573.582031 396.105469 573.109375 C 395.355469 571.109375 395.910156 571.023438 397.664062 557.277344 C 397.691406 557.027344 397.523438 556.75 397.246094 555.695312 C 396.71875 557.277344 396.410156 558.195312 396.050781 559.277344 C 393.410156 557.527344 397.246094 556.582031 395.46875 551.75 C 395.1875 550.945312 395.910156 549.777344 396.273438 548.363281 C 397.050781 549.113281 397.441406 549.472656 397.800781 549.835938 C 398.550781 548.472656 398.800781 545.640625 398.105469 544.695312 C 395.71875 541.363281 399.328125 542.445312 395.328125 537.585938 C 394.71875 539.945312 395.273438 542.363281 392.992188 543.613281 C 391.1875 542.917969 391.105469 541.363281 390.769531 539.53125 C 389.855469 541.03125 388.910156 542.5 387.601562 544.585938 C 388.632812 536.140625 388.269531 528.171875 390.160156 520.394531 C 390.964844 522.339844 390.855469 524.253906 390.019531 526.226562 C 393.746094 524.589844 393.746094 506.230469 393.550781 505.398438 C 391.605469 506.035156 392.050781 504.648438 391.492188 511.117188 C 391.160156 511.203125 389.992188 511.921875 389.410156 511.589844 C 388.101562 510.839844 387.714844 512.117188 386.714844 512.421875 C 386.824219 510.3125 388.632812 509.867188 390.1875 508.703125 C 388.742188 508.453125 387.6875 508.257812 386.6875 508.089844 C 385.046875 511.3125 385.046875 511.3125 385.4375 516.5625 C 386.019531 516.671875 386.628906 516.757812 387.601562 516.921875 C 381.65625 523.308594 387.574219 525.503906 383.769531 532.308594 C 384.269531 536.449219 382.238281 540.167969 381.824219 544.140625 C 381.628906 545.890625 382.574219 547.722656 382.546875 549.5 C 382.433594 560.722656 377.933594 563.886719 380.628906 571.304688 C 376.792969 573.164062 380.488281 573.441406 377.851562 597.910156 C 377.792969 598.296875 377.988281 598.6875 378.070312 599.160156 C 377.210938 599.855469 376.347656 600.519531 375.40625 601.269531 C 375.347656 601.105469 380.296875 542.558594 380.296875 532.585938 C 380.046875 532.585938 379.765625 532.558594 379.488281 532.558594 C 378.378906 544.722656 377.265625 556.859375 376.125 569.027344 C 375.933594 569.054688 375.738281 569.082031 375.542969 569.082031 C 374.738281 564.191406 377.347656 553.054688 375.097656 552.363281 C 375.125 552.140625 376.488281 547.777344 378.183594 534.363281 C 378.15625 534.335938 377.738281 533.949219 377.15625 533.421875 C 377.488281 532.671875 377.820312 531.890625 378.15625 531.140625 C 376.347656 528.671875 376.460938 528.171875 378.851562 527.253906 C 378.851562 525.28125 378.851562 523.339844 378.851562 520.921875 C 377.851562 522.003906 378.15625 521.449219 377.65625 522.894531 C 376.683594 518.144531 380.433594 518.0625 378.378906 515.5625 C 378.101562 515.199219 377.820312 514.535156 377.960938 514.171875 C 379.101562 511.453125 377.820312 508.644531 378.101562 505.925781 C 378.738281 505.675781 379.292969 505.453125 380.433594 505.007812 C 366.984375 499.121094 375.625 510.507812 370.375 521.867188 C 370.152344 521.839844 369.902344 521.78125 369.679688 521.753906 C 368.984375 518.3125 368.429688 508.785156 369.320312 503.867188 C 369.347656 503.898438 368.984375 503.785156 368.679688 503.589844 C 364.566406 500.980469 364.429688 505.507812 364.066406 507.144531 C 364.011719 507.367188 364.234375 507.894531 364.402344 507.925781 C 366.511719 508.394531 365.84375 510.089844 365.84375 511.339844 C 365.816406 513.671875 365.875 515.949219 364.59375 518.199219 C 364.066406 519.117188 364.761719 520.894531 364.402344 522.367188 C 363.09375 527.449219 365.066406 524.753906 364.984375 532.140625 C 364.957031 534.613281 363.957031 543.308594 363.734375 548.972656 C 363.679688 550.472656 362.761719 550.75 361.675781 551.167969 C 363.316406 554.054688 363.09375 549.835938 361.59375 570.832031 C 354.785156 570.636719 362.566406 576.300781 362.566406 485.898438 C 360.148438 485.761719 357.980469 485.621094 355.230469 485.457031 C 356.203125 486.761719 356.757812 487.511719 357.316406 488.261719 L 357.398438 488.175781 C 355.535156 487.621094 353.339844 487.898438 351.839844 485.871094 C 349.199219 488.84375 250.972656 486.34375 250.136719 486.175781 C 244.71875 485.039062 233.519531 490.648438 229.878906 488.234375 C 229.796875 488.175781 229.65625 488.121094 229.601562 488.148438 C 227.519531 489.84375 225.128906 489.121094 222.378906 488.648438 C 224.878906 492.425781 228.324219 489.316406 239.246094 490.175781 C 236.242188 493.398438 232.632812 492.34375 229.15625 493.039062 C 228.964844 493.453125 228.628906 494.257812 228.324219 494.953125 C 222.433594 497.285156 181.140625 492.203125 157.828125 493.566406 C 148.878906 485.011719 155.796875 491.898438 143.320312 487.234375 C 138.902344 485.566406 134.375 484.925781 129.539062 484.984375 C 131.121094 481.898438 132.375 482.898438 138.015625 482.898438 C 135.734375 480.84375 133.289062 482.234375 131.066406 478.566406 C 130.148438 477.066406 125.789062 477.09375 124.648438 477.09375 C 125.289062 475.679688 124.507812 473.761719 127.09375 473.734375 C 126.898438 474.347656 126.734375 474.847656 126.398438 475.789062 C 132.957031 475.789062 135.597656 472.707031 136.847656 475.789062 C 138.988281 474.816406 141.042969 474.039062 143.097656 475.652344 C 143.601562 476.066406 157.214844 476.34375 160.078125 475.484375 C 158.855469 474.816406 119.980469 470.011719 115.285156 469.542969 C 115.257812 469.734375 115.199219 469.929688 115.144531 470.125 C 115.589844 470.429688 116.0625 470.761719 116.699219 471.234375 C 111.339844 472.347656 112.253906 470.789062 93.609375 467.320312 C 93.636719 467.097656 93.664062 466.875 93.691406 466.652344 C 102.78125 467.542969 103.308594 468.234375 108.03125 468.429688 C 106.03125 467.929688 104.03125 467.457031 102.027344 466.929688 C 99.722656 466.320312 99.835938 464.265625 95.777344 463.679688 C 106.863281 460.488281 99.113281 460.125 105.808594 461.265625 C 106.917969 458.292969 115.367188 458.820312 115.8125 461.210938 C 116.480469 464.484375 134.511719 466.484375 137.097656 466.765625 C 134.402344 465.097656 134.402344 465.097656 132.429688 465.625 C 132.511719 464.484375 132.566406 463.429688 132.652344 462.207031 C 127.957031 457.765625 134.484375 456.933594 140.683594 454.347656 C 139.210938 452.128906 112.503906 452.097656 106.476562 447.601562 C 105.308594 446.738281 101.527344 451.097656 99.945312 444.851562 C 101.25 446.15625 103.472656 444.65625 103.585938 447.574219 C 106.417969 444.628906 103.558594 446.40625 102.808594 442.101562 C 99.722656 441.628906 96.417969 443.351562 93.441406 440.683594 C 95.359375 439.519531 97.945312 439.269531 98.167969 436.242188 C 94.25 436.628906 94.914062 434.464844 89.996094 433.90625 C 87.996094 433.65625 85.996094 433.546875 83.996094 433.378906 C 84.328125 431.378906 85.105469 430.910156 89.21875 430.160156 C 88.496094 429.824219 88.136719 429.660156 87.609375 429.410156 C 92.191406 426.4375 97.390625 428.714844 102.308594 427.351562 C 101.945312 426.4375 101.585938 425.546875 101.25 424.714844 C 96.636719 424.046875 92.082031 423.855469 87.800781 422.160156 C 88.109375 417.132812 96.082031 418.9375 101.335938 416.050781 C 95.082031 415.605469 83.71875 415.023438 82.410156 412.1875 C 84.71875 410.800781 86.550781 411.855469 88.886719 409.273438 C 90.109375 407.910156 90.523438 408.382812 97.054688 407.382812 C 94.804688 405.664062 94.5 402.386719 90.996094 402.914062 C 90.886719 399.386719 94.5 398.886719 95.582031 396.273438 C 99.304688 398.273438 103.113281 396.914062 106.78125 397.386719 C 111.839844 385.136719 109.253906 392.96875 117.203125 385.972656 C 110.476562 384.914062 113.644531 384.359375 109.671875 384.777344 C 110.28125 383.636719 110.617188 383.082031 110.921875 382.472656 C 106.167969 381.386719 105.390625 382.386719 103.25 380.722656 C 102.972656 380.5 102.472656 380.582031 102 380.5 C 102.085938 377.527344 99.390625 378.359375 97.5 377.527344 C 99.445312 373.863281 100.835938 373.695312 105.667969 370.195312 C 107.085938 370.363281 109.03125 370.554688 111.03125 370.777344 C 112.671875 366.445312 130.59375 366.558594 133.207031 364.917969 C 132.734375 363.085938 132.734375 363.085938 128.566406 363.140625 C 126.011719 356.585938 137.375 362.695312 139.238281 357.53125 C 139.902344 355.753906 171.5 355.640625 173.082031 356.863281 C 176.140625 353.308594 187.253906 352.671875 190.03125 354.308594 C 191.894531 355.421875 193.171875 353.421875 194.867188 353.503906 C 190.949219 351.199219 186.335938 352.78125 182.363281 350.78125 C 182.363281 350.78125 263.226562 348.421875 352.394531 348.421875 C 351.480469 331.730469 351.507812 237.9375 355.785156 227.664062 C 353.757812 224.386719 354.953125 220.941406 355.730469 217.496094 C 356.09375 215.832031 355.007812 208.277344 357.59375 204.277344 C 357.816406 203.914062 360.539062 167.644531 361.925781 165.976562 C 363.734375 169.921875 360.648438 170.117188 362.484375 176.085938 C 364.039062 173.863281 365.511719 172.335938 366.289062 170.503906 C 367.039062 168.753906 366.707031 166.617188 368.125 164.976562 C 368.011719 166.089844 355.507812 251.851562 356.953125 263.988281 C 354.339844 266.210938 358.289062 296.066406 354.035156 297.097656 C 354.035156 298.402344 354.035156 299.59375 354.035156 300.984375 C 355.035156 300.902344 356.007812 300.84375 356.980469 300.761719 C 358.34375 302.84375 355.648438 301.84375 355.453125 302.929688 C 355.84375 303.207031 356.257812 303.566406 356.898438 304.039062 C 355.425781 305.234375 354.648438 340.699219 354.980469 341.253906 C 356.257812 343.394531 356.425781 345.753906 356.175781 348.058594 C 357.59375 349.308594 358.730469 348.753906 359.925781 347.921875 C 356.3125 334.699219 364.011719 176.863281 376.933594 153.535156 C 377.542969 154.367188 355.5625 324.675781 364.289062 327.535156 C 365.957031 326.925781 364.871094 325.925781 365.734375 317.703125 C 368.347656 292.597656 366.316406 256.546875 371.515625 229.496094 C 371.488281 229.523438 371.929688 229.191406 372.738281 228.660156 C 371.957031 228.273438 371.488281 228.023438 370.875 227.691406 C 371.320312 224.441406 371.738281 221.050781 372.152344 217.773438 C 372.679688 217.773438 373.570312 217.886719 373.070312 217.164062 C 371.097656 214.332031 374.183594 207.886719 374.375 207.054688 C 376.488281 198.417969 375.210938 191.308594 376.097656 183.835938 C 381.460938 139.34375 385.964844 139.398438 380.796875 138.730469 C 381.269531 136.871094 381.738281 134.816406 382.324219 132.453125 C 382.742188 133.511719 382.992188 134.175781 383.242188 134.84375 C 383.433594 134.84375 383.628906 134.84375 383.824219 134.84375 C 384.628906 131.566406 385.4375 128.289062 386.269531 124.871094 C 385.519531 124.679688 384.964844 124.566406 384.433594 124.429688 C 384.378906 124.207031 384.269531 124.011719 384.324219 123.84375 C 389.132812 108.652344 388.074219 121.789062 392.828125 99.988281 C 394.550781 100.238281 396.300781 100.347656 396.996094 102.570312 C 405.277344 74.910156 399.886719 78.933594 405.886719 75.6875 C 406.804688 78.15625 406.441406 77.101562 407.277344 79.683594 C 407.917969 78.796875 408.445312 78.128906 409.222656 77.101562 C 411.363281 82.960938 408.527344 88.378906 414.28125 98.097656 C 415.195312 95.238281 414.445312 92.210938 416.195312 89.546875 C 416.335938 91.074219 416.445312 92.628906 416.585938 94.15625 C 424.449219 85.933594 423.726562 63.160156 425.894531 61.273438 C 427.285156 70.992188 425.726562 65.828125 429.5625 70.492188 C 431.148438 63.769531 431.5625 56.996094 434.925781 50.578125 C 437.039062 57.160156 433.703125 62.519531 432.871094 68.464844 C 436.257812 69.382812 433.121094 73.410156 436.203125 80.464844 C 436.203125 80.464844 437.453125 64.1875 441.511719 56.023438 C 443.59375 61.800781 440.566406 63.660156 439.398438 81.019531 C 442.84375 78.4375 437.675781 67.964844 446.152344 67.964844 C 448.820312 71.574219 447.652344 72.632812 449.234375 84.710938 C 449.542969 84.878906 449.875 85.046875 450.207031 85.210938 C 451.792969 81.351562 450.347656 78.519531 454.015625 71.546875 C 454.238281 71.632812 454.460938 71.714844 454.683594 71.796875 C 455.960938 77.742188 458.601562 81.546875 458.238281 90.15625 C 458.128906 93.101562 459.460938 90.351562 460.019531 95.015625 C 460.128906 95.847656 460.046875 96.710938 460.046875 98.015625 C 461.074219 97.433594 461.628906 97.128906 462.40625 96.683594 C 462.101562 102.238281 461.824219 107.652344 461.519531 113.234375 C 464.769531 112.261719 464.714844 108.179688 466.019531 102.042969 C 468.410156 90.738281 471.464844 93.878906 476.578125 89.183594 C 478.191406 91.460938 476.414062 94.128906 477.886719 96.347656 C 478.691406 93.960938 479.441406 91.738281 480.246094 89.40625 C 483.21875 91.90625 481.164062 93.988281 483.277344 105.125 C 483.691406 102.152344 484.082031 99.210938 486.054688 96.238281 C 488.777344 100.40625 485.554688 98.875 491.527344 102.375 C 497.585938 105.929688 493.640625 116.820312 495.226562 126.011719 C 495.699219 125.652344 496.03125 125.402344 496.667969 124.929688 C 501.503906 141.007812 496.753906 280.738281 497.558594 295.457031 C 502.449219 290.292969 500.503906 288.457031 500.671875 276.625 C 501.589844 217.636719 511.84375 156.507812 512.230469 152.617188 C 512.480469 152.617188 512.703125 152.617188 512.925781 152.589844 C 513.703125 176.726562 510.898438 195.054688 507.117188 253.6875 C 507.339844 253.796875 507.535156 253.878906 507.757812 253.992188 C 508.5625 252.992188 509.367188 251.964844 510.203125 250.910156 C 511.230469 254.714844 510.285156 258.351562 510.007812 261.65625 C 509.175781 262.128906 508.589844 262.460938 508.007812 262.796875 C 508.5625 263.210938 509.148438 263.628906 510.035156 264.296875 C 509.675781 271.128906 509.285156 278.347656 508.867188 285.707031 C 506.671875 285.679688 507.339844 286.707031 505.921875 278.125 C 504.003906 279.292969 503.785156 280.097656 504.644531 281.597656 C 508.117188 287.820312 501.976562 301.679688 506.199219 302.234375 C 506.199219 302.234375 507.757812 289.320312 508.144531 287.597656 C 509.398438 297.179688 506.394531 306.539062 506.921875 316.257812 C 505.117188 316.480469 504.726562 317.84375 504.476562 319.230469 C 503.867188 322.453125 500.726562 324.0625 502.78125 327.867188 C 503.753906 329.703125 503.503906 331.175781 502.644531 333.117188 C 503.5625 333.0625 504.226562 333.035156 504.921875 332.980469 C 505.285156 327.839844 505.617188 322.84375 505.921875 317.816406 C 506.171875 317.84375 506.394531 317.84375 506.617188 317.871094 C 506.757812 319.675781 505.980469 341.089844 505.921875 341.8125 C 503.8125 339.5625 505.839844 336.644531 504.421875 333.894531 C 503.117188 336.5625 503.949219 339.007812 503.589844 341.394531 C 502.726562 341.867188 501.78125 342.367188 500.253906 343.199219 C 501.867188 343.8125 502.894531 344.171875 504.367188 344.726562 C 503.617188 345.558594 503.035156 346.226562 502.421875 346.921875 C 502.726562 347.199219 503.117188 347.53125 503.503906 347.867188 C 503.253906 348.894531 503.003906 349.921875 502.671875 351.253906 C 503.503906 351.28125 543.796875 353.921875 548.078125 355.113281 C 550.882812 354.226562 626.242188 354.058594 633.636719 358.003906 C 630.328125 360.335938 636.441406 359.195312 608.042969 360.445312 C 609.625 362.417969 612.765625 362.917969 617.269531 362.113281 C 622.769531 367.75 611.90625 361.167969 644.167969 364.28125 C 644.167969 364.28125 749.621094 371.75 755.929688 373.195312 C 743.867188 374.554688 711.609375 370.722656 706.023438 372.25 C 705.300781 372.445312 698.519531 374.082031 698.242188 373.390625 C 697.074219 370.445312 689.90625 374.75 689.183594 373.917969 C 687.542969 372 685.460938 373.5 683.597656 373.195312 C 677.207031 372.195312 684.097656 371.335938 676.402344 371.585938 C 673.425781 367.417969 677.316406 371.972656 664.0625 371.304688 C 663.980469 370.75 663.894531 370.277344 663.785156 369.5 C 636.496094 366.808594 639.277344 368.75 638.304688 370.085938 C 637.941406 370.054688 636.996094 370 636.054688 369.945312 C 636.023438 369.808594 635.996094 369.667969 635.96875 369.5 C 636.496094 369.222656 636.996094 368.945312 637.496094 368.695312 C 637.46875 368.558594 637.441406 368.417969 637.386719 368.308594 C 624.828125 369.667969 635.441406 366.472656 624.355469 367.972656 C 624.269531 368.558594 624.1875 369.027344 624.078125 369.667969 C 601.234375 367.695312 605.902344 372.25 587.953125 369.527344 C 588.871094 372.804688 589.339844 373.304688 591.675781 372.25 C 593.816406 371.304688 595.566406 372.640625 597.511719 372.527344 C 601.789062 372.277344 598.59375 371.085938 604.652344 371.445312 C 605.097656 371.472656 617.101562 371.695312 617.296875 371.972656 C 619.378906 374.804688 624.019531 372.195312 625.964844 373.804688 C 626.300781 374.082031 627.605469 373.695312 628.023438 373.222656 C 628.855469 372.335938 716.859375 376.722656 717.691406 376.890625 C 717.277344 377.75 716.96875 378.386719 716.46875 379.417969 C 719.136719 378.359375 721.140625 379.75 723.304688 380.25 C 715.746094 380.859375 714.21875 380.527344 667.980469 379.167969 C 667.980469 379.386719 667.980469 379.636719 667.953125 379.886719 C 682.792969 380.554688 697.628906 381.25 712.441406 381.914062 C 712.441406 381.945312 712.441406 382 712.441406 382.054688 C 708.660156 382.332031 704.855469 382.636719 701.074219 382.945312 C 713.441406 385.664062 720.445312 386.914062 749.480469 386.914062 C 748.425781 386.164062 747.535156 385.527344 746.621094 384.886719 C 748.703125 385.109375 750.675781 385.304688 752.816406 385.527344 C 752.621094 385.859375 752.425781 386.136719 752.039062 386.71875 C 753.679688 387.136719 755.179688 387.554688 756.761719 387.96875 C 757.347656 388.691406 757.984375 389.582031 758.652344 390.441406 C 760.347656 388.832031 764.875 388.664062 768.488281 389.996094 C 765.847656 390.359375 763.210938 390.691406 760.542969 391.054688 C 766.320312 392.21875 772.15625 391.859375 777.9375 392.054688 C 777.9375 392.246094 777.964844 392.441406 777.964844 392.636719 C 735.449219 395.664062 759.097656 397.273438 741.507812 395.859375 C 741.453125 396.082031 741.421875 396.332031 741.367188 396.582031 C 742.507812 396.773438 743.648438 396.996094 744.925781 397.246094 C 744.898438 397.828125 744.839844 398.414062 744.8125 399.078125 C 742.953125 399.46875 740.5625 399.136719 740.921875 402.414062 C 741.757812 402.386719 774.601562 402.328125 777.714844 403.773438 C 773.796875 404.523438 769.878906 405.300781 765.960938 406.050781 C 769.574219 407.355469 773.378906 406.605469 777.046875 407.496094 C 771.878906 408.605469 766.460938 407.660156 761.320312 408.882812 C 761.320312 409.105469 761.320312 409.328125 761.320312 409.578125 C 762.710938 409.800781 764.125 410.023438 765.515625 410.246094 C 765.515625 410.410156 765.542969 410.578125 765.542969 410.746094 C 761.320312 410.96875 757.097656 411.1875 752.261719 411.4375 C 758.707031 414.328125 771.683594 418.828125 776.574219 415.714844 C 777.074219 416.355469 777.492188 416.882812 777.9375 417.410156 C 777.9375 417.410156 731.808594 418.519531 728.835938 418.992188 C 728.753906 420.1875 728.667969 421.046875 728.585938 422.105469 C 735.78125 424.242188 738.476562 419.464844 746.148438 423.714844 L 746.0625 423.632812 "/>
</g>
<path style=" stroke:none;fill-rule:nonzero;fill:rgb(100%,39.99939%,76.858521%);fill-opacity:1;" d="M 310.046875 503.839844 C 306.742188 506.230469 302.65625 504.617188 298.988281 505.785156 C 298.738281 505.175781 298.515625 504.648438 298.238281 504.0625 C 287.984375 504.675781 207.789062 509.480469 198.785156 504.148438 C 199.703125 501.675781 201.316406 503.339844 218.488281 504.117188 C 224.460938 504.398438 227.65625 503.953125 238.4375 504.230469 C 246.109375 504.425781 287.402344 502.035156 309.910156 502.925781 C 309.964844 503.230469 310.019531 503.535156 310.046875 503.839844 "/>
<path style=" stroke:none;fill-rule:nonzero;fill:rgb(100%,39.99939%,76.858521%);fill-opacity:1;" d="M 358.175781 150.453125 C 360.539062 150.730469 360.230469 153.339844 359.84375 155.867188 C 353.785156 195.222656 353.839844 223.886719 350.785156 244.742188 C 350.5625 244.742188 350.339844 244.742188 350.117188 244.769531 C 349.226562 240.632812 351.730469 229.050781 350.144531 218.832031 C 351.757812 216.164062 352.3125 206.886719 352.367188 206.054688 C 352.589844 202.054688 349.671875 206.164062 353.0625 193.945312 C 357.257812 178.863281 353.425781 168.976562 358.175781 150.453125 "/>
<path style=" stroke:none;fill-rule:nonzero;fill:rgb(100%,39.99939%,76.858521%);fill-opacity:1;" d="M 363.484375 150.285156 C 362.957031 149.589844 362.425781 148.953125 361.789062 148.148438 C 363.011719 146.675781 364.871094 146.648438 363.898438 143.5625 C 363.261719 141.453125 362.59375 139.289062 364.234375 137.289062 C 363.648438 135.121094 369.125 118.039062 369.375 117.207031 C 369.929688 119.097656 367.957031 120.566406 369.570312 122.734375 C 371.015625 118.234375 370.957031 116.984375 372.679688 117.761719 C 372.679688 135.84375 368.429688 131.34375 366.984375 149.703125 C 365.761719 149.898438 364.621094 150.089844 363.484375 150.285156 "/>
<path style=" stroke:none;fill-rule:nonzero;fill:rgb(100%,39.99939%,76.858521%);fill-opacity:1;" d="M 396.355469 721.445312 C 396.160156 720.585938 395.996094 719.78125 395.800781 718.835938 C 396.578125 718.917969 397.023438 718.945312 397.664062 719.003906 C 397.496094 717.890625 399.050781 717.003906 397.773438 715.53125 C 397.246094 716.226562 396.828125 716.808594 396.355469 717.417969 C 395.910156 717.140625 395.496094 716.835938 394.996094 716.503906 C 392.632812 719.03125 394.160156 723.058594 396.355469 721.445312 Z M 397.664062 709.585938 C 398.414062 709.699219 399.191406 709.808594 400.164062 709.976562 C 399.941406 710.699219 399.773438 711.335938 399.550781 712.03125 C 399.96875 712.226562 400.386719 712.417969 400.800781 712.640625 C 398.386719 729.113281 402.023438 711.835938 399.550781 729.917969 C 395.71875 730.277344 397.773438 728.113281 395.023438 740.027344 C 393.242188 735.195312 397.164062 725.777344 395.855469 722.863281 C 393.882812 722.972656 394.464844 724.390625 394.4375 725.390625 C 393.523438 725.445312 392.605469 725.527344 391.828125 725.585938 C 392.160156 722.113281 392.523438 718.558594 392.828125 715.308594 C 394.605469 715.195312 396.105469 715.113281 397.300781 715.03125 C 397.441406 713.03125 397.550781 711.363281 397.664062 709.585938 "/>
<path style=" stroke:none;fill-rule:nonzero;fill:rgb(100%,39.99939%,76.858521%);fill-opacity:1;" d="M 454.070312 549.085938 C 455.40625 547.667969 454.90625 548.195312 456.070312 546.863281 C 459.238281 552 454.792969 558.722656 454.65625 566.664062 C 454.628906 567.96875 453.765625 573.664062 452.820312 574.46875 C 450.457031 576.46875 452.402344 576.71875 451.320312 579.328125 C 448.125 576.523438 452.765625 574.773438 451.070312 568.136719 C 451.570312 567.691406 452.042969 567.304688 452.460938 566.941406 C 452.097656 563.832031 452.097656 563.832031 453.097656 562.804688 C 450.875 554.167969 454.070312 555.390625 454.070312 549.085938 "/>
<path style=" stroke:none;fill-rule:nonzero;fill:rgb(100%,39.99939%,76.858521%);fill-opacity:1;" d="M 366.375 658.371094 C 365.429688 655.34375 368.902344 640.570312 366.707031 636.375 C 366.011719 635.015625 366.597656 633.597656 367.929688 632.738281 C 365.679688 629.933594 368.707031 627.210938 367.457031 624.15625 C 368.347656 624.460938 368.679688 624.574219 369.320312 624.792969 C 369.625 623.851562 369.902344 622.851562 370.265625 621.683594 C 369.292969 621.574219 368.652344 621.488281 367.984375 621.433594 C 368.570312 619.796875 368.570312 619.796875 370.902344 620.601562 C 370.320312 633.210938 368.625 645.792969 366.375 658.371094 "/>
<path style=" stroke:none;fill-rule:nonzero;fill:rgb(100%,39.99939%,76.858521%);fill-opacity:1;" d="M 377.488281 672.785156 C 382.128906 676.871094 376.65625 688.035156 373.792969 696.753906 C 372.375 695.699219 374.125 693.644531 375.210938 687.339844 C 375.960938 683.117188 374.765625 678.898438 377.070312 677.007812 C 377.070312 677.007812 377.183594 674.203125 377.488281 672.785156 "/>
<path style=" stroke:none;fill-rule:nonzero;fill:rgb(100%,39.99939%,76.858521%);fill-opacity:1;" d="M 660.367188 451.628906 C 659.753906 453.988281 646.25 453.65625 643.832031 453.597656 C 636.859375 453.515625 633.023438 455.765625 632.164062 451.683594 C 636.773438 452.15625 638.304688 453.070312 640.914062 451.738281 C 642.804688 450.738281 645.863281 452.40625 649.808594 451.847656 C 655.171875 451.128906 652.058594 452.238281 657.726562 449.933594 C 657.671875 451.960938 659.839844 450.40625 660.367188 451.628906 "/>
<path style=" stroke:none;fill-rule:nonzero;fill:rgb(100%,39.99939%,76.858521%);fill-opacity:1;" d="M 358.371094 598.546875 C 355.371094 596.160156 358.203125 579.328125 358.621094 575.859375 C 361.261719 580.441406 360.261719 598.269531 358.316406 598.464844 L 358.371094 598.546875 "/>
<path style=" stroke:none;fill-rule:nonzero;fill:rgb(100%,39.99939%,76.858521%);fill-opacity:1;" d="M 464.519531 564.691406 C 464.378906 563.582031 464.242188 562.554688 464.128906 561.527344 C 463.9375 561.5 463.714844 561.472656 463.519531 561.472656 C 463.074219 564.832031 462.628906 568.164062 462.183594 571.523438 C 461.992188 571.496094 461.824219 571.46875 461.65625 571.414062 C 463.492188 554.804688 463.824219 556.667969 465.214844 553.5 C 465.160156 553.417969 464.878906 552.917969 464.574219 552.332031 C 465.046875 552.113281 465.492188 551.890625 466.132812 551.582031 C 465.660156 550.945312 465.242188 550.335938 464.660156 549.5 C 467.464844 548.667969 465.824219 545.972656 466.964844 544.167969 C 468.855469 545.917969 465.492188 563.859375 464.519531 564.691406 "/>
<path style=" stroke:none;fill-rule:nonzero;fill:rgb(100%,39.99939%,76.858521%);fill-opacity:1;" d="M 377.460938 671.816406 C 377.460938 666.761719 380.65625 651.179688 381.238281 649.957031 C 381.433594 650.011719 381.65625 650.039062 381.851562 650.097656 C 381.378906 656.816406 380.878906 663.539062 380.351562 670.621094 C 379.542969 670.953125 378.542969 671.34375 377.460938 671.816406 "/>
<path style=" stroke:none;fill-rule:nonzero;fill:rgb(100%,39.99939%,76.858521%);fill-opacity:1;" d="M 380.710938 608.601562 C 380.710938 604.882812 380.710938 601.714844 380.710938 598.464844 C 378.878906 598.492188 380.015625 596.964844 382.90625 585.023438 C 385.992188 585.441406 381.210938 607.769531 380.710938 608.601562 "/>
<path style=" stroke:none;fill-rule:nonzero;fill:rgb(100%,39.99939%,76.858521%);fill-opacity:1;" d="M 746.148438 423.714844 C 746.007812 423.464844 745.871094 423.1875 745.59375 422.714844 C 750.011719 421.714844 754.429688 422.269531 758.761719 421.796875 C 760.234375 423.105469 762.570312 421.214844 764.183594 423.296875 C 758.539062 424.9375 752.566406 422.855469 747.425781 425.964844 C 747.648438 425.601562 747.898438 425.242188 748.230469 424.742188 C 747.453125 424.355469 746.757812 423.992188 746.0625 423.632812 L 746.148438 423.714844 "/>
<path style=" stroke:none;fill-rule:nonzero;fill:rgb(100%,39.99939%,76.858521%);fill-opacity:1;" d="M 387.992188 546.167969 C 390.296875 548.777344 386.464844 551.390625 389.742188 554.640625 C 388.605469 556.859375 387.464844 559.109375 386.324219 561.332031 C 386.128906 561.304688 385.9375 561.25 385.742188 561.195312 C 385.964844 559.609375 382.824219 555.859375 385.519531 552.890625 C 387.269531 550.972656 388.382812 548.972656 387.992188 546.167969 "/>
<path style=" stroke:none;fill-rule:nonzero;fill:rgb(100%,39.99939%,76.858521%);fill-opacity:1;" d="M 370.679688 114.929688 C 371.570312 107.152344 375.792969 96.847656 381.183594 89.683594 C 380.851562 90.515625 373.097656 111.152344 370.679688 114.929688 "/>
<path style=" stroke:none;fill-rule:nonzero;fill:rgb(100%,39.99939%,76.858521%);fill-opacity:1;" d="M 255.25 494.09375 C 259.472656 491.480469 268.0625 493.230469 278.785156 491.148438 C 277.121094 494.871094 259.503906 494.34375 255.25 494.09375 "/>
<path style=" stroke:none;fill-rule:nonzero;fill:rgb(100%,39.99939%,76.858521%);fill-opacity:1;" d="M 385.4375 607.992188 C 383.40625 603.992188 389.660156 593.855469 385.519531 587.1875 C 386.128906 586.800781 386.769531 586.410156 387.214844 586.132812 C 390.410156 593.523438 390.269531 590.828125 385.4375 607.992188 "/>
<path style=" stroke:none;fill-rule:nonzero;fill:rgb(100%,39.99939%,76.858521%);fill-opacity:1;" d="M 452.820312 609.519531 C 451.152344 614.15625 451.847656 619.101562 448.292969 623.265625 C 447.679688 621.15625 450.765625 604.4375 451.402344 603.601562 C 453.625 605.324219 448.484375 607.992188 452.820312 609.519531 "/>
<path style=" stroke:none;fill-rule:nonzero;fill:rgb(100%,39.99939%,76.858521%);fill-opacity:1;" d="M 383.378906 583.300781 C 382.210938 581.855469 382.351562 562.554688 387.519531 564.386719 C 382.992188 571.746094 386.296875 581.105469 383.378906 583.300781 "/>
<path style=" stroke:none;fill-rule:nonzero;fill:rgb(100%,39.99939%,76.858521%);fill-opacity:1;" d="M 423.894531 721.972656 C 423.78125 714.167969 426.421875 706.894531 427.199219 699.0625 C 427.949219 699.28125 428.394531 699.421875 428.953125 699.589844 C 428.535156 701.28125 427.257812 709.835938 423.894531 721.972656 "/>
<path style=" stroke:none;fill-rule:nonzero;fill:rgb(100%,39.99939%,76.858521%);fill-opacity:1;" d="M 358.316406 598.464844 C 358.480469 607.878906 359.148438 608.796875 355.953125 611.492188 C 355.089844 607.160156 356.480469 603.324219 356.507812 599.464844 C 357.121094 599.160156 357.730469 598.855469 358.371094 598.546875 C 358.371094 598.546875 358.316406 598.464844 358.316406 598.464844 "/>
<path style=" stroke:none;fill-rule:nonzero;fill:rgb(100%,39.99939%,76.858521%);fill-opacity:1;" d="M 363.484375 150.285156 C 367.011719 153.007812 365.261719 156.3125 363.539062 162.3125 C 362.816406 160.699219 362.175781 159.339844 361.511719 157.894531 C 364.066406 153.394531 362.457031 156.3125 363.484375 150.285156 "/>
<path style=" stroke:none;fill-rule:nonzero;fill:rgb(100%,39.99939%,76.858521%);fill-opacity:1;" d="M 430.953125 679.203125 C 432.035156 673.648438 433.148438 668.09375 434.285156 662.398438 C 435.121094 662.925781 435.066406 662.207031 433.953125 666.148438 C 436.09375 667.09375 432.953125 678.0625 431.617188 679.480469 C 431.398438 679.398438 431.175781 679.285156 430.953125 679.203125 "/>
<path style=" stroke:none;fill-rule:nonzero;fill:rgb(100%,39.99939%,76.858521%);fill-opacity:1;" d="M 674.871094 451.65625 C 682.097656 451.40625 689.320312 451.15625 696.824219 450.90625 C 694.769531 452.542969 676.484375 452.90625 674.871094 451.65625 "/>
<path style=" stroke:none;fill-rule:nonzero;fill:rgb(100%,39.99939%,76.858521%);fill-opacity:1;" d="M 131.066406 486.066406 C 152.101562 492.09375 138.542969 487.234375 150.15625 491.703125 C 149.019531 492.871094 131.957031 488.234375 131.066406 486.066406 "/>
<path style=" stroke:none;fill-rule:nonzero;fill:rgb(100%,39.99939%,76.858521%);fill-opacity:1;" d="M 397.414062 678.148438 C 393.910156 677.121094 394.910156 680.675781 393.410156 681.675781 C 393.996094 680.035156 393.328125 677.871094 395.605469 677.0625 C 395.96875 676.925781 396.023438 675.925781 396.21875 675.34375 C 393.773438 674.757812 395.828125 672.816406 394.96875 671.84375 C 396.191406 670.789062 397.300781 669.84375 398.46875 668.84375 C 398.914062 670.980469 395.882812 670.59375 397.691406 676.035156 C 397.855469 676.535156 397.550781 677.203125 397.414062 678.148438 "/>
<path style=" stroke:none;fill-rule:nonzero;fill:rgb(100%,39.99939%,76.858521%);fill-opacity:1;" d="M 157.6875 352.921875 C 160.550781 351.394531 170.304688 350.53125 173.972656 351.363281 C 168.746094 351.921875 163.71875 354.085938 157.6875 352.921875 "/>
<path style=" stroke:none;fill-rule:nonzero;fill:rgb(100%,39.99939%,76.858521%);fill-opacity:1;" d="M 733.78125 377.945312 C 733.226562 378.109375 732.644531 378.25 731.863281 378.445312 C 733.335938 380.359375 735.53125 380.332031 737.476562 380.945312 C 734.53125 380.945312 731.613281 380.945312 728.585938 380.945312 C 728.195312 380.332031 727.753906 379.636719 727.28125 378.886719 C 729.085938 377.109375 731.421875 377.5 733.78125 377.945312 "/>
<path style=" stroke:none;fill-rule:nonzero;fill:rgb(100%,39.99939%,76.858521%);fill-opacity:1;" d="M 350.007812 245.855469 C 351.980469 247.382812 349.617188 262.460938 349.3125 264.269531 C 349.089844 252.574219 348.921875 257.546875 350.007812 245.855469 "/>
<path style=" stroke:none;fill-rule:nonzero;fill:rgb(100%,39.99939%,76.858521%);fill-opacity:1;" d="M 387.074219 684.839844 C 387.851562 685.3125 388.632812 685.757812 389.605469 686.3125 C 388.910156 690.285156 388.1875 694.285156 387.464844 698.339844 C 385.242188 698.0625 386.101562 696.226562 385.40625 695.117188 C 388.742188 694.117188 387.128906 687.617188 387.101562 684.839844 L 387.074219 684.839844 "/>
<path style=" stroke:none;fill-rule:nonzero;fill:rgb(100%,39.99939%,76.858521%);fill-opacity:1;" d="M 729.863281 361.78125 C 725.777344 363.667969 721.75 364.058594 717.25 362.085938 C 719.277344 360.445312 729.03125 361.726562 729.863281 361.78125 "/>
<path style=" stroke:none;fill-rule:nonzero;fill:rgb(100%,39.99939%,76.858521%);fill-opacity:1;" d="M 468.519531 581.496094 C 467.855469 586.605469 467.214844 591.714844 466.492188 597.382812 C 464.492188 593.6875 466.519531 583.355469 468.519531 581.496094 "/>
<path style=" stroke:none;fill-rule:nonzero;fill:rgb(100%,39.99939%,76.858521%);fill-opacity:1;" d="M 254.582031 489.898438 C 247.246094 495.230469 244.800781 490.675781 243.96875 489.898438 C 247.71875 489.898438 251.136719 489.898438 254.582031 489.898438 "/>
<path style=" stroke:none;fill-rule:nonzero;fill:rgb(100%,39.99939%,76.858521%);fill-opacity:1;" d="M 411.195312 750.414062 C 410.613281 749.914062 410 749.386719 409.195312 748.691406 C 409.332031 748.164062 409.582031 747.304688 409.890625 746.109375 C 410.140625 746.859375 410.304688 747.332031 410.445312 747.804688 C 410.582031 747.832031 410.722656 747.859375 410.863281 747.886719 C 411.863281 743.441406 412.863281 738.972656 413.863281 734.5 C 414.085938 734.554688 414.28125 734.582031 414.5 734.636719 C 411.082031 751.609375 413.140625 745.027344 411.113281 750.386719 C 411.140625 750.386719 411.195312 750.414062 411.195312 750.414062 "/>
<path style=" stroke:none;fill-rule:nonzero;fill:rgb(100%,39.99939%,76.858521%);fill-opacity:1;" d="M 474.246094 573.582031 C 474.660156 570.441406 475.078125 567.332031 475.496094 564.136719 C 474.96875 563.886719 474.46875 563.664062 473.773438 563.332031 C 474.660156 562.25 475.414062 561.304688 476.636719 559.804688 C 477.328125 565.109375 475.578125 569.304688 475.191406 573.664062 C 474.882812 573.636719 474.578125 573.609375 474.246094 573.582031 "/>
<path style=" stroke:none;fill-rule:nonzero;fill:rgb(100%,39.99939%,76.858521%);fill-opacity:1;" d="M 348.285156 596.269531 C 350.617188 593.742188 351.535156 593.132812 349.980469 591.910156 C 348.171875 590.550781 353.257812 586.660156 352.894531 590.273438 C 352.644531 593.160156 351.894531 595.742188 348.285156 596.269531 "/>
<path style=" stroke:none;fill-rule:nonzero;fill:rgb(100%,39.99939%,76.858521%);fill-opacity:1;" d="M 365.121094 667.230469 C 366.34375 669.539062 366.125 679.871094 363.816406 680.839844 C 363.371094 679.007812 364.152344 670.648438 365.121094 667.230469 "/>
<path style=" stroke:none;fill-rule:nonzero;fill:rgb(100%,39.99939%,76.858521%);fill-opacity:1;" d="M 708.523438 450.847656 C 714.054688 450.128906 719.609375 450.683594 725.667969 450.515625 C 720.304688 451.820312 712.21875 452.070312 708.523438 450.847656 "/>
<path style=" stroke:none;fill-rule:nonzero;fill:rgb(100%,39.99939%,76.858521%);fill-opacity:1;" d="M 387.601562 575.359375 C 387.242188 572.664062 387.601562 564.804688 390.492188 563.414062 C 386.964844 571.496094 392.632812 567.804688 387.601562 575.359375 "/>
<path style=" stroke:none;fill-rule:nonzero;fill:rgb(100%,39.99939%,76.858521%);fill-opacity:1;" d="M 364.152344 686.589844 C 364.539062 686.425781 364.816406 686.285156 365.734375 685.867188 C 365.375 686.703125 363.898438 690.339844 363.066406 691.449219 C 361.984375 690.3125 361.425781 681.507812 364.652344 682.175781 C 364.484375 683.5625 364.316406 685.007812 364.152344 686.589844 "/>
<path style=" stroke:none;fill-rule:nonzero;fill:rgb(100%,39.99939%,76.858521%);fill-opacity:1;" d="M 386.601562 706.335938 C 386.019531 710.058594 385.546875 713.28125 385.046875 716.503906 C 380.488281 715.695312 384.492188 714.417969 383.992188 712.699219 C 383.15625 709.753906 384.878906 708.753906 386.601562 706.335938 "/>
<path style=" stroke:none;fill-rule:nonzero;fill:rgb(100%,39.99939%,76.858521%);fill-opacity:1;" d="M 612.101562 491.371094 C 622.214844 490.730469 623.632812 490.425781 625.992188 491.398438 C 624.132812 492.539062 620.546875 492.621094 612.101562 491.371094 "/>
<path style=" stroke:none;fill-rule:nonzero;fill:rgb(100%,39.99939%,76.858521%);fill-opacity:1;" d="M 406.527344 636.238281 C 406.277344 637.597656 406.027344 638.988281 405.691406 640.765625 C 403.746094 640.152344 401.996094 639.625 400.109375 639.042969 C 400.359375 638.015625 400.523438 637.320312 400.664062 636.597656 C 401.71875 637.347656 402.664062 638.015625 403.609375 638.710938 C 404.386719 637.515625 404.941406 636.679688 405.527344 635.820312 C 405.859375 635.960938 406.191406 636.097656 406.527344 636.238281 "/>
<path style=" stroke:none;fill-rule:nonzero;fill:rgb(100%,39.99939%,76.858521%);fill-opacity:1;" d="M 348.921875 318.066406 C 347.753906 312.789062 348.421875 307.511719 348.589844 302.207031 C 349.949219 305.59375 348.976562 317.257812 348.921875 318.066406 "/>
<path style=" stroke:none;fill-rule:nonzero;fill:rgb(100%,39.99939%,76.858521%);fill-opacity:1;" d="M 469.992188 558.972656 C 471.300781 561.304688 470.6875 574.136719 468.578125 573.46875 C 469.050781 568.71875 469.492188 564.136719 469.992188 558.972656 "/>
<path style=" stroke:none;fill-rule:nonzero;fill:rgb(100%,39.99939%,76.858521%);fill-opacity:1;" d="M 357.09375 513.535156 C 361.203125 516.535156 357.203125 518.226562 357.535156 521.367188 C 357.730469 523.339844 355.507812 523.503906 354.535156 524.726562 C 355.535156 521.117188 357.898438 517.921875 357.09375 513.535156 "/>
<path style=" stroke:none;fill-rule:nonzero;fill:rgb(100%,39.99939%,76.858521%);fill-opacity:1;" d="M 377.433594 656.871094 C 377.933594 652.484375 378.460938 648.097656 379.042969 643.070312 C 380.210938 645.707031 379.433594 652.261719 377.433594 656.871094 "/>
<path style=" stroke:none;fill-rule:nonzero;fill:rgb(100%,39.99939%,76.858521%);fill-opacity:1;" d="M 318.160156 501.980469 C 320.328125 500.703125 323.746094 500.425781 326.441406 501.121094 C 324.441406 503.285156 322.109375 503.5625 318.160156 501.980469 "/>
<path style=" stroke:none;fill-rule:nonzero;fill:rgb(100%,39.99939%,76.858521%);fill-opacity:1;" d="M 415.640625 687.117188 C 415.53125 687.953125 415.445312 688.8125 415.308594 690.117188 C 414.667969 690.5625 412.5 689.839844 412.085938 692.089844 C 411.945312 690.394531 411.804688 688.730469 411.640625 686.894531 C 413.167969 686.980469 414.390625 687.035156 415.640625 687.117188 "/>
<path style=" stroke:none;fill-rule:nonzero;fill:rgb(100%,39.99939%,76.858521%);fill-opacity:1;" d="M 446.761719 632.15625 C 446.761719 626.820312 446.125 623.65625 449.292969 624.042969 C 449.515625 627.015625 448.484375 626.183594 447.097656 632.183594 C 446.984375 632.183594 446.875 632.15625 446.761719 632.15625 "/>
<path style=" stroke:none;fill-rule:nonzero;fill:rgb(100%,39.99939%,76.858521%);fill-opacity:1;" d="M 418.199219 668.953125 C 419.835938 673.535156 417.28125 673.425781 414.558594 673.785156 C 415.03125 671.566406 416.003906 669.925781 418.199219 668.953125 "/>
<path style=" stroke:none;fill-rule:nonzero;fill:rgb(100%,39.99939%,76.858521%);fill-opacity:1;" d="M 426.839844 683.925781 C 427.257812 681.285156 427.671875 678.648438 428.117188 675.84375 C 428.8125 676.035156 429.367188 676.203125 429.953125 676.371094 C 430.144531 679.480469 428.257812 681.675781 426.839844 683.925781 "/>
<path style=" stroke:none;fill-rule:nonzero;fill:rgb(100%,39.99939%,76.858521%);fill-opacity:1;" d="M 380.265625 615.90625 C 380.324219 619.574219 380.101562 623.183594 377.988281 626.488281 C 378.488281 622.90625 379.015625 619.324219 379.542969 615.742188 C 379.765625 615.796875 380.015625 615.851562 380.265625 615.90625 "/>
<path style=" stroke:none;fill-rule:nonzero;fill:rgb(100%,39.99939%,76.858521%);fill-opacity:1;" d="M 487.859375 575.828125 C 487.25 578.886719 489.277344 582.21875 486.554688 585.300781 C 485.527344 583.21875 485.304688 585.578125 487.195312 575.71875 C 487.417969 575.746094 487.640625 575.800781 487.859375 575.828125 "/>
<path style=" stroke:none;fill-rule:nonzero;fill:rgb(100%,39.99939%,76.858521%);fill-opacity:1;" d="M 384.601562 704.949219 C 385.519531 699.226562 383.65625 701.144531 387.296875 699.253906 C 387.1875 701.421875 387.101562 703.144531 387.019531 705.085938 C 386.1875 705.03125 385.464844 705.003906 384.601562 704.949219 "/>
<path style=" stroke:none;fill-rule:nonzero;fill:rgb(100%,39.99939%,76.858521%);fill-opacity:1;" d="M 351.339844 605.4375 C 350.839844 607.6875 352.117188 609.992188 350.230469 612.101562 C 348.257812 609.851562 350.730469 608.128906 350.5625 606.046875 C 349.921875 606.464844 349.421875 606.796875 348.839844 607.1875 C 348.726562 604.601562 348.8125 604.546875 351.339844 605.4375 "/>
<path style=" stroke:none;fill-rule:nonzero;fill:rgb(100%,39.99939%,76.858521%);fill-opacity:1;" d="M 349.199219 619.183594 C 346.671875 617.046875 347.894531 615.242188 349.144531 613.214844 C 351.257812 615.324219 350.367188 617.183594 349.199219 619.183594 "/>
<path style=" stroke:none;fill-rule:nonzero;fill:rgb(100%,39.99939%,76.858521%);fill-opacity:1;" d="M 116.449219 453.210938 C 115.3125 454.933594 114.839844 455.847656 107.671875 451.933594 C 111.089844 450.765625 113.367188 453.042969 116.449219 453.210938 "/>
<path style=" stroke:none;fill-rule:nonzero;fill:rgb(100%,39.99939%,76.858521%);fill-opacity:1;" d="M 530.683594 494.730469 C 532.878906 494.121094 537.15625 494.121094 540.628906 494.816406 C 538.742188 495.730469 537.878906 494.898438 533.683594 495.453125 C 532.597656 495.59375 531.40625 496.398438 530.683594 494.730469 "/>
<path style=" stroke:none;fill-rule:nonzero;fill:rgb(100%,39.99939%,76.858521%);fill-opacity:1;" d="M 390.828125 562.277344 C 389.828125 559.195312 389.660156 561.164062 392.019531 553.582031 C 393.300781 558.332031 393.496094 557.082031 390.828125 562.277344 "/>
<path style=" stroke:none;fill-rule:nonzero;fill:rgb(100%,39.99939%,76.858521%);fill-opacity:1;" d="M 265.949219 489.761719 C 254.863281 490.816406 256.667969 490.816406 255.835938 490.121094 C 257.527344 488.761719 262.113281 488.398438 265.949219 489.761719 "/>
<path style=" stroke:none;fill-rule:nonzero;fill:rgb(100%,39.99939%,76.858521%);fill-opacity:1;" d="M 370.765625 753.914062 C 371.207031 749.804688 371.652344 745.691406 372.097656 741.582031 C 373.292969 745.804688 371.738281 749.859375 371.652344 753.996094 C 371.347656 753.96875 371.070312 753.941406 370.765625 753.914062 "/>
<path style=" stroke:none;fill-rule:nonzero;fill:rgb(100%,39.99939%,76.858521%);fill-opacity:1;" d="M 449.207031 587.578125 C 449.875 585.496094 448.457031 582.96875 450.765625 581.191406 C 451.820312 584.632812 451.429688 586.523438 449.207031 587.578125 "/>
<path style=" stroke:none;fill-rule:nonzero;fill:rgb(100%,39.99939%,76.858521%);fill-opacity:1;" d="M 371.765625 668.289062 C 372.042969 665.234375 372.457031 662.289062 374.902344 659.59375 C 374.820312 663.148438 372.929688 665.648438 371.765625 668.289062 "/>
<path style=" stroke:none;fill-rule:nonzero;fill:rgb(100%,39.99939%,76.858521%);fill-opacity:1;" d="M 448.292969 593.4375 C 447.929688 592.910156 447.734375 592.605469 447.457031 592.1875 C 448.347656 591.578125 449.207031 590.996094 450.152344 590.355469 C 449.957031 591.828125 449.738281 593.273438 449.515625 595.050781 C 448.652344 595.382812 447.597656 595.800781 445.929688 596.4375 C 446.929688 595.160156 447.570312 594.355469 448.292969 593.4375 "/>
<path style=" stroke:none;fill-rule:nonzero;fill:rgb(100%,39.99939%,76.858521%);fill-opacity:1;" d="M 475.882812 581.914062 C 477.609375 585.773438 475.273438 589.105469 475.164062 592.742188 C 474.941406 592.714844 474.71875 592.6875 474.496094 592.660156 C 474.96875 589.078125 475.414062 585.496094 475.882812 581.914062 "/>
<path style=" stroke:none;fill-rule:nonzero;fill:rgb(100%,39.99939%,76.858521%);fill-opacity:1;" d="M 398.746094 732.527344 C 399.191406 735 399.355469 737.277344 398.300781 739.972656 C 397.273438 738.414062 396.882812 739.5 397.800781 733.222656 C 397.828125 732.972656 398.386719 732.777344 398.746094 732.527344 "/>
<path style=" stroke:none;fill-rule:nonzero;fill:rgb(100%,39.99939%,76.858521%);fill-opacity:1;" d="M 662.089844 451.347656 C 664.867188 451.683594 667.675781 452.015625 670.453125 452.347656 C 670.453125 452.570312 670.425781 452.792969 670.398438 452.988281 C 667.59375 452.878906 664.757812 453.238281 662.007812 452.128906 C 662.035156 451.878906 662.0625 451.597656 662.089844 451.347656 "/>
<path style=" stroke:none;fill-rule:nonzero;fill:rgb(100%,39.99939%,76.858521%);fill-opacity:1;" d="M 451.238281 533.363281 C 450.820312 531.171875 450.457031 529.335938 450.042969 527.058594 C 451.460938 528.585938 452.988281 529.503906 452.488281 531.640625 C 452.292969 532.421875 452.542969 533.585938 451.238281 533.363281 "/>
<path style=" stroke:none;fill-rule:nonzero;fill:rgb(100%,39.99939%,76.858521%);fill-opacity:1;" d="M 392.578125 545.613281 C 392.992188 547.75 393.355469 549.835938 392.105469 551.945312 C 390.546875 548.863281 390.660156 547.558594 392.578125 545.613281 "/>
<path style=" stroke:none;fill-rule:nonzero;fill:rgb(100%,39.99939%,76.858521%);fill-opacity:1;" d="M 357.316406 488.261719 C 358.007812 487.984375 358.703125 487.703125 359.84375 487.234375 C 359.566406 488.066406 359.398438 490.59375 355.5625 492.621094 C 356.203125 491.148438 356.785156 489.675781 357.398438 488.175781 C 357.398438 488.175781 357.316406 488.261719 357.316406 488.261719 "/>
<path style=" stroke:none;fill-rule:nonzero;fill:rgb(100%,39.99939%,76.858521%);fill-opacity:1;" d="M 429.644531 624.210938 C 430.589844 627.570312 431.8125 626.988281 428.089844 630.265625 C 428.339844 628.015625 428.117188 625.933594 429.703125 624.292969 C 429.703125 624.292969 429.644531 624.210938 429.644531 624.210938 "/>
<path style=" stroke:none;fill-rule:nonzero;fill:rgb(100%,39.99939%,76.858521%);fill-opacity:1;" d="M 501.117188 516.421875 C 501.671875 516.339844 502.144531 516.257812 502.921875 516.144531 C 502.226562 518.339844 503.285156 520.5625 501.589844 522.867188 C 501.394531 520.421875 501.28125 518.5625 501.117188 516.421875 "/>
<path style=" stroke:none;fill-rule:nonzero;fill:rgb(100%,39.99939%,76.858521%);fill-opacity:1;" d="M 784.550781 404.328125 C 774.851562 406.078125 779.1875 402.355469 783.160156 403.21875 C 783.605469 403.300781 783.9375 403.828125 784.550781 404.328125 "/>
<path style=" stroke:none;fill-rule:nonzero;fill:rgb(100%,39.99939%,76.858521%);fill-opacity:1;" d="M 417.140625 680.257812 C 414.972656 677.898438 415.140625 676.871094 417.917969 674.59375 C 419.199219 676.703125 416.058594 678.175781 417.140625 680.257812 "/>
<path style=" stroke:none;fill-rule:nonzero;fill:rgb(100%,39.99939%,76.858521%);fill-opacity:1;" d="M 120.703125 476.34375 C 118.867188 475.707031 117.035156 475.066406 114.8125 474.289062 C 118.117188 472.539062 121.203125 475.125 120.703125 476.34375 "/>
<path style=" stroke:none;fill-rule:nonzero;fill:rgb(100%,39.99939%,76.858521%);fill-opacity:1;" d="M 411.304688 701.589844 C 411.917969 701.839844 412.5 702.089844 413.113281 702.339844 C 413.890625 701.058594 413.667969 700.03125 412.445312 699.03125 C 413.113281 699.199219 413.75 699.367188 414.667969 699.589844 C 414.585938 700.921875 414.472656 702.144531 414.335938 703.835938 C 412.890625 703.253906 411.890625 702.867188 410.863281 702.476562 C 411.027344 702.171875 411.167969 701.894531 411.304688 701.589844 "/>
<path style=" stroke:none;fill-rule:nonzero;fill:rgb(100%,39.99939%,76.858521%);fill-opacity:1;" d="M 695.296875 361.445312 C 696.90625 359.753906 698.128906 359.613281 703.828125 360.195312 C 700.824219 360.640625 698.1875 361.03125 695.296875 361.445312 "/>
<path style=" stroke:none;fill-rule:nonzero;fill:rgb(100%,39.99939%,76.858521%);fill-opacity:1;" d="M 360.871094 709.449219 C 359.453125 707.503906 360.121094 705.449219 360.59375 703.117188 C 361.707031 705.335938 361.871094 707.363281 360.871094 709.449219 "/>
<path style=" stroke:none;fill-rule:nonzero;fill:rgb(100%,39.99939%,76.858521%);fill-opacity:1;" d="M 464.046875 567.496094 C 464.269531 570.164062 465.214844 572.941406 462.714844 575.414062 C 463.1875 572.609375 463.601562 570.054688 464.046875 567.496094 "/>
<path style=" stroke:none;fill-rule:nonzero;fill:rgb(100%,39.99939%,76.858521%);fill-opacity:1;" d="M 489.140625 526.726562 C 490.417969 525.949219 491.140625 525.003906 489.945312 523.53125 C 492.613281 522.253906 491.722656 524.367188 490.808594 529.644531 C 490.25 528.585938 489.722656 527.617188 489.222656 526.644531 C 489.222656 526.644531 489.140625 526.726562 489.140625 526.726562 "/>
<path style=" stroke:none;fill-rule:nonzero;fill:rgb(100%,39.99939%,76.858521%);fill-opacity:1;" d="M 162.050781 503.367188 C 162.855469 503.175781 163.691406 502.8125 163.773438 502.953125 C 164.71875 504.425781 166.941406 504.035156 167.691406 505.757812 C 163.328125 504.703125 163.328125 504.703125 162.050781 503.367188 "/>
<path style=" stroke:none;fill-rule:nonzero;fill:rgb(100%,39.99939%,76.858521%);fill-opacity:1;" d="M 421.085938 726.113281 C 422.253906 725.25 425.171875 726 421.867188 731.777344 C 421.867188 727.222656 422.03125 728.804688 421.085938 726.113281 "/>
<path style=" stroke:none;fill-rule:nonzero;fill:rgb(100%,39.99939%,76.858521%);fill-opacity:1;" d="M 402.71875 627.65625 C 401.96875 622.046875 401.96875 622.046875 403.386719 619.796875 C 403.996094 622.738281 402.746094 625.128906 402.71875 627.65625 "/>
<path style=" stroke:none;fill-rule:nonzero;fill:rgb(100%,39.99939%,76.858521%);fill-opacity:1;" d="M 429.507812 696.8125 C 427.921875 698.28125 426.367188 697.449219 424.394531 697.753906 C 425.367188 696.617188 425.976562 695.894531 426.449219 695.339844 C 427.421875 695.8125 428.285156 696.226562 429.507812 696.8125 "/>
<g clip-path="url(#clip2)" clip-rule="nonzero">
<path style=" stroke:none;fill-rule:nonzero;fill:rgb(100%,39.99939%,76.858521%);fill-opacity:1;" d="M 394.023438 761.578125 C 394.382812 758.355469 394.773438 755.136719 395.1875 751.523438 C 395.96875 753.96875 395.382812 759.078125 394.023438 761.578125 "/>
</g>
<path style=" stroke:none;fill-rule:nonzero;fill:rgb(100%,39.99939%,76.858521%);fill-opacity:1;" d="M 373.210938 633.183594 C 373.515625 631.347656 372.515625 629.238281 374.347656 626.960938 C 374.570312 629.570312 374.402344 631.460938 373.210938 633.183594 "/>
<path style=" stroke:none;fill-rule:nonzero;fill:rgb(100%,39.99939%,76.858521%);fill-opacity:1;" d="M 709.132812 361.363281 C 710.636719 360.085938 712.191406 360.640625 714.109375 361.003906 C 712.359375 363.113281 710.691406 361.585938 709.132812 361.363281 "/>
<path style=" stroke:none;fill-rule:nonzero;fill:rgb(100%,39.99939%,76.858521%);fill-opacity:1;" d="M 727.03125 426.296875 C 728.945312 425.519531 727 425.546875 734.03125 425.910156 C 734.03125 426.132812 734.03125 426.324219 734.03125 426.519531 C 731.726562 426.6875 729.417969 426.851562 727.113281 427.019531 C 727.085938 426.769531 727.058594 426.519531 727.03125 426.296875 "/>
<path style=" stroke:none;fill-rule:nonzero;fill:rgb(100%,39.99939%,76.858521%);fill-opacity:1;" d="M 491.585938 542.25 C 491.25 540.335938 491.058594 539.085938 490.808594 537.585938 C 491.695312 537.667969 494.308594 536.863281 491.585938 542.25 "/>
<path style=" stroke:none;fill-rule:nonzero;fill:rgb(100%,39.99939%,76.858521%);fill-opacity:1;" d="M 128.207031 457.652344 C 126.121094 457.542969 124.035156 457.402344 121.84375 457.292969 C 123.398438 456.292969 126.039062 456.347656 128.207031 457.652344 "/>
<path style=" stroke:none;fill-rule:nonzero;fill:rgb(100%,39.99939%,76.858521%);fill-opacity:1;" d="M 403.859375 646.484375 C 403.554688 645.234375 403.386719 644.375 403.164062 643.375 C 403.941406 642.902344 404.636719 642.457031 405.386719 642.015625 C 406.082031 643.902344 405.054688 645.011719 403.859375 646.484375 "/>
<path style=" stroke:none;fill-rule:nonzero;fill:rgb(100%,39.99939%,76.858521%);fill-opacity:1;" d="M 485.917969 590.550781 C 485.472656 588.882812 485.832031 587.46875 487.054688 586.160156 C 488.945312 588.46875 488.167969 588.660156 485.859375 590.464844 C 485.886719 590.496094 485.917969 590.550781 485.917969 590.550781 "/>
<path style=" stroke:none;fill-rule:nonzero;fill:rgb(100%,39.99939%,76.858521%);fill-opacity:1;" d="M 393.464844 706.226562 C 392.882812 706.144531 392.328125 706.058594 391.382812 705.921875 C 391.269531 706.003906 390.714844 706.421875 389.546875 707.308594 C 389.769531 705.671875 389.882812 704.699219 389.992188 703.808594 C 392.160156 703.585938 392.632812 705.117188 393.382812 706.308594 C 393.382812 706.308594 393.464844 706.226562 393.464844 706.226562 "/>
<path style=" stroke:none;fill-rule:nonzero;fill:rgb(100%,39.99939%,76.858521%);fill-opacity:1;" d="M 350.367188 620.546875 C 349.617188 621.765625 349.171875 622.515625 348.699219 623.292969 C 347.921875 622.40625 347.226562 621.628906 346.3125 620.546875 C 347.699219 620.546875 348.757812 620.546875 350.367188 620.546875 "/>
<path style=" stroke:none;fill-rule:nonzero;fill:rgb(100%,39.99939%,76.858521%);fill-opacity:1;" d="M 406.359375 597.714844 C 406.554688 599.105469 406.722656 600.492188 406.914062 601.9375 C 404.941406 601.160156 404.777344 600.605469 406.359375 597.714844 "/>
<path style=" stroke:none;fill-rule:nonzero;fill:rgb(100%,39.99939%,76.858521%);fill-opacity:1;" d="M 375.15625 725.835938 C 374.765625 727.863281 374.347656 729.890625 373.933594 731.917969 C 373.679688 731.859375 373.375 731.804688 373.125 731.75 C 373.515625 729.722656 373.902344 727.667969 374.292969 725.640625 C 374.597656 725.695312 374.875 725.777344 375.15625 725.835938 "/>
<path style=" stroke:none;fill-rule:nonzero;fill:rgb(100%,39.99939%,76.858521%);fill-opacity:1;" d="M 429.671875 672.648438 C 430.007812 670.289062 430.257812 668.621094 430.589844 666.511719 C 431.757812 668.925781 431.480469 670.898438 429.671875 672.648438 "/>
<path style=" stroke:none;fill-rule:nonzero;fill:rgb(100%,39.99939%,76.858521%);fill-opacity:1;" d="M 429.785156 688.839844 C 430.203125 690.617188 430.0625 692.285156 429.089844 693.867188 C 428.703125 692.117188 427.507812 690.257812 429.867188 688.921875 L 429.785156 688.839844 "/>
<path style=" stroke:none;fill-rule:nonzero;fill:rgb(100%,39.99939%,76.858521%);fill-opacity:1;" d="M 687.65625 360.890625 C 685.902344 360.835938 684.847656 360.78125 683.765625 360.726562 C 684.875 359.195312 685.988281 358.753906 687.65625 360.890625 "/>
<path style=" stroke:none;fill-rule:nonzero;fill:rgb(100%,39.99939%,76.858521%);fill-opacity:1;" d="M 377.40625 663.261719 C 377.042969 665.203125 376.65625 667.175781 376.265625 669.148438 C 376.070312 669.09375 375.90625 669.066406 375.738281 669.039062 C 376.015625 667.066406 376.292969 665.066406 376.542969 663.066406 C 376.847656 663.121094 377.128906 663.175781 377.40625 663.261719 "/>
<path style=" stroke:none;fill-rule:nonzero;fill:rgb(100%,39.99939%,76.858521%);fill-opacity:1;" d="M 368.320312 595.519531 C 368.070312 597.464844 367.847656 599.4375 367.597656 601.382812 C 367.261719 599.328125 366.539062 597.214844 368.320312 595.519531 "/>
<path style=" stroke:none;fill-rule:nonzero;fill:rgb(100%,39.99939%,76.858521%);fill-opacity:1;" d="M 365.929688 660.734375 C 366.984375 662.59375 366.429688 664.398438 365.902344 666.203125 C 364.234375 664.316406 365.984375 662.566406 365.929688 660.734375 "/>
<path style=" stroke:none;fill-rule:nonzero;fill:rgb(100%,39.99939%,76.858521%);fill-opacity:1;" d="M 382.101562 619.796875 C 382.796875 618.433594 383.492188 617.074219 384.296875 615.460938 C 385.15625 617.710938 383.492188 618.683594 382.742188 620.015625 C 382.519531 619.933594 382.324219 619.878906 382.101562 619.796875 "/>
<path style=" stroke:none;fill-rule:nonzero;fill:rgb(100%,39.99939%,76.858521%);fill-opacity:1;" d="M 208.039062 509.203125 C 209.652344 508.203125 211.011719 508.089844 212.679688 509.089844 C 211.039062 510.0625 209.652344 510.0625 208.039062 509.203125 "/>
<path style=" stroke:none;fill-rule:nonzero;fill:rgb(100%,39.99939%,76.858521%);fill-opacity:1;" d="M 425.199219 704.449219 C 424.644531 706.085938 425.449219 708.253906 423.394531 709.363281 C 424.976562 702.699219 422.617188 706.78125 424.617188 704.03125 C 424.8125 704.171875 425.003906 704.308594 425.199219 704.449219 "/>
<path style=" stroke:none;fill-rule:nonzero;fill:rgb(100%,39.99939%,76.858521%);fill-opacity:1;" d="M 374.015625 655.929688 C 372.570312 653.84375 375.183594 653.375 375.125 651.984375 C 376.515625 653.707031 374.875 654.59375 374.015625 655.929688 "/>
<path style=" stroke:none;fill-rule:nonzero;fill:rgb(100%,39.99939%,76.858521%);fill-opacity:1;" d="M 408.777344 687.953125 C 408.945312 686.175781 409.140625 684.394531 409.332031 682.617188 C 409.527344 682.648438 409.75 682.675781 409.945312 682.703125 C 409.777344 684.507812 409.609375 686.3125 409.609375 688.117188 C 409.332031 688.0625 409.054688 688.007812 408.777344 687.953125 "/>
<path style=" stroke:none;fill-rule:nonzero;fill:rgb(100%,39.99939%,76.858521%);fill-opacity:1;" d="M 372.457031 739.25 C 372.457031 737.582031 372.265625 735.886719 373.210938 734.359375 C 373.429688 734.386719 373.652344 734.417969 373.875 734.445312 C 373.625 736.082031 373.347656 737.722656 373.097656 739.332031 C 372.875 739.304688 372.679688 739.277344 372.457031 739.25 "/>
<path style=" stroke:none;fill-rule:nonzero;fill:rgb(100%,39.99939%,76.858521%);fill-opacity:1;" d="M 368.734375 586.996094 C 368.734375 589.078125 368.734375 590.964844 368.734375 592.828125 C 367.734375 590.910156 367.820312 589.023438 368.734375 586.996094 "/>
<path style=" stroke:none;fill-rule:nonzero;fill:rgb(100%,39.99939%,76.858521%);fill-opacity:1;" d="M 640.222656 357.863281 C 642 358.03125 643.917969 356.949219 646.113281 358.308594 C 643.695312 359.140625 641.972656 357.726562 640.222656 357.863281 "/>
<path style=" stroke:none;fill-rule:nonzero;fill:rgb(100%,39.99939%,76.858521%);fill-opacity:1;" d="M 358.816406 502.089844 C 357.425781 503.675781 356.285156 501.480469 354.5625 502.589844 C 356.121094 500.5625 356.121094 500.5625 358.816406 502.089844 "/>
<path style=" stroke:none;fill-rule:nonzero;fill:rgb(100%,39.99939%,76.858521%);fill-opacity:1;" d="M 393.273438 614.824219 C 394.1875 616.183594 393.855469 617.210938 392.800781 618.269531 C 391.882812 616.769531 391.910156 616.460938 393.273438 614.824219 "/>
<path style=" stroke:none;fill-rule:nonzero;fill:rgb(100%,39.99939%,76.858521%);fill-opacity:1;" d="M 426.226562 699.03125 C 425.726562 700.617188 426.5625 702.226562 424.394531 703.253906 C 424.5625 701.53125 423.921875 699.949219 426.226562 699.03125 "/>
<path style=" stroke:none;fill-rule:nonzero;fill:rgb(100%,39.99939%,76.858521%);fill-opacity:1;" d="M 429.867188 688.921875 C 429.894531 687.507812 429.203125 685.953125 430.589844 684.730469 C 431.867188 686.785156 431.8125 687.0625 429.785156 688.839844 C 429.785156 688.839844 429.867188 688.921875 429.867188 688.921875 "/>
<path style=" stroke:none;fill-rule:nonzero;fill:rgb(100%,39.99939%,76.858521%);fill-opacity:1;" d="M 349.644531 267.574219 C 349.644531 268.933594 349.644531 270.292969 349.644531 271.628906 C 349.449219 271.628906 349.257812 271.628906 349.0625 271.628906 C 349.0625 270.265625 349.0625 268.90625 349.0625 267.542969 C 349.257812 267.574219 349.449219 267.574219 349.644531 267.574219 "/>
<path style=" stroke:none;fill-rule:nonzero;fill:rgb(100%,39.99939%,76.858521%);fill-opacity:1;" d="M 348.617188 343.226562 C 348.535156 341.921875 348.449219 340.617188 348.394531 339.3125 C 349.589844 340.476562 349.285156 341.8125 349.199219 343.117188 C 349.007812 343.144531 348.8125 343.171875 348.617188 343.226562 "/>
<path style=" stroke:none;fill-rule:nonzero;fill:rgb(100%,39.99939%,76.858521%);fill-opacity:1;" d="M 436.871094 657.371094 C 436.257812 658.511719 435.621094 659.761719 434.925781 661.039062 C 434.5625 658.289062 434.898438 657.734375 436.871094 657.371094 "/>
<path style=" stroke:none;fill-rule:nonzero;fill:rgb(100%,39.99939%,76.858521%);fill-opacity:1;" d="M 217.597656 509.367188 C 218.820312 507.117188 220.015625 507.3125 221.238281 509.203125 C 220.015625 509.257812 218.820312 509.3125 217.597656 509.367188 "/>
<path style=" stroke:none;fill-rule:nonzero;fill:rgb(100%,39.99939%,76.858521%);fill-opacity:1;" d="M 373.347656 587.660156 C 373.515625 586.105469 373.679688 584.550781 373.847656 582.996094 C 374.070312 583.023438 374.292969 583.050781 374.515625 583.078125 C 374.375 584.632812 374.238281 586.191406 374.097656 587.746094 C 373.847656 587.71875 373.597656 587.6875 373.347656 587.660156 "/>
<path style=" stroke:none;fill-rule:nonzero;fill:rgb(100%,39.99939%,76.858521%);fill-opacity:1;" d="M 369.152344 669.371094 C 369.429688 667.203125 368.347656 664.816406 369.957031 662.511719 C 369.652344 665.011719 369.402344 667.203125 369.152344 669.371094 "/>
<path style=" stroke:none;fill-rule:nonzero;fill:rgb(100%,39.99939%,76.858521%);fill-opacity:1;" d="M 418.113281 740.332031 C 419.058594 739.804688 420.003906 739.304688 420.949219 738.777344 C 421.003906 739.25 421.085938 740.136719 421.144531 740.804688 C 420.085938 740.804688 419.171875 740.804688 418.253906 740.804688 C 418.199219 740.636719 418.140625 740.5 418.113281 740.332031 "/>
<path style=" stroke:none;fill-rule:nonzero;fill:rgb(100%,39.99939%,76.858521%);fill-opacity:1;" d="M 478.886719 587.71875 C 478.582031 588.632812 478.273438 589.550781 477.859375 590.773438 C 476.664062 588.632812 476.691406 588.523438 478.886719 587.71875 "/>
<path style=" stroke:none;fill-rule:nonzero;fill:rgb(100%,39.99939%,76.858521%);fill-opacity:1;" d="M 401.886719 718.03125 C 402.109375 715.945312 402.332031 713.863281 402.554688 711.78125 C 403.21875 714.003906 403.277344 716.140625 401.886719 718.03125 "/>
<path style=" stroke:none;fill-rule:nonzero;fill:rgb(100%,39.99939%,76.858521%);fill-opacity:1;" d="M 416.835938 657.984375 C 416.003906 658.179688 415.167969 658.316406 413.945312 658.566406 C 414.085938 657.402344 414.195312 656.621094 414.363281 655.152344 C 415.472656 656.484375 416.113281 657.289062 416.78125 658.039062 C 416.808594 658.039062 416.835938 657.984375 416.835938 657.984375 "/>
<path style=" stroke:none;fill-rule:nonzero;fill:rgb(100%,39.99939%,76.858521%);fill-opacity:1;" d="M 518.121094 508.117188 C 519.429688 507.953125 520.707031 507.8125 522.011719 507.675781 C 522.039062 507.925781 522.09375 508.175781 522.125 508.453125 C 520.816406 508.589844 519.511719 508.757812 518.207031 508.921875 C 518.175781 508.644531 518.148438 508.367188 518.121094 508.117188 "/>
<path style=" stroke:none;fill-rule:nonzero;fill:rgb(100%,39.99939%,76.858521%);fill-opacity:1;" d="M 118.894531 472.320312 C 120.203125 472.539062 121.535156 472.789062 123.425781 473.097656 C 121.3125 474.566406 120.257812 472.570312 118.894531 472.320312 "/>
<path style=" stroke:none;fill-rule:nonzero;fill:rgb(100%,39.99939%,76.858521%);fill-opacity:1;" d="M 628.382812 454.183594 C 626.882812 454.183594 625.410156 454.183594 623.9375 454.183594 C 625.410156 452.960938 626.882812 453.15625 628.382812 454.183594 "/>
<path style=" stroke:none;fill-rule:nonzero;fill:rgb(100%,39.99939%,76.858521%);fill-opacity:1;" d="M 391.105469 516.257812 C 390.769531 517.5625 390.578125 518.339844 390.355469 519.285156 C 388.410156 517.617188 388.4375 517.535156 391.105469 516.257812 "/>
<path style=" stroke:none;fill-rule:nonzero;fill:rgb(100%,39.99939%,76.858521%);fill-opacity:1;" d="M 324.609375 489.539062 C 325.859375 489.261719 327.109375 488.984375 328.359375 488.703125 C 327.527344 490.480469 325.996094 489.953125 324.804688 490.425781 C 324.746094 490.148438 324.664062 489.84375 324.609375 489.539062 "/>
<path style=" stroke:none;fill-rule:nonzero;fill:rgb(100%,39.99939%,76.858521%);fill-opacity:1;" d="M 390.855469 699.839844 C 390.769531 698.421875 390.6875 697.035156 390.605469 694.976562 C 392.105469 696.535156 392.019531 695.285156 391.1875 699.839844 C 391.078125 699.839844 390.964844 699.839844 390.855469 699.839844 "/>
<path style=" stroke:none;fill-rule:nonzero;fill:rgb(100%,39.99939%,76.858521%);fill-opacity:1;" d="M 333.277344 503.148438 C 332.417969 503.089844 331.582031 503.035156 330.722656 503.007812 C 330.75 502.757812 330.75 502.507812 330.777344 502.257812 C 331.609375 502.339844 332.472656 502.425781 333.304688 502.535156 C 333.304688 502.730469 333.277344 502.925781 333.277344 503.148438 "/>
<path style=" stroke:none;fill-rule:nonzero;fill:rgb(100%,39.99939%,76.858521%);fill-opacity:1;" d="M 412.363281 694.894531 C 412.363281 696.035156 412.363281 696.839844 412.363281 697.726562 C 410.527344 696.671875 410.5 696.199219 412.363281 694.894531 "/>
<path style=" stroke:none;fill-rule:nonzero;fill:rgb(100%,39.99939%,76.858521%);fill-opacity:1;" d="M 373.820312 593.9375 C 373.570312 595.132812 373.347656 596.328125 373.097656 597.519531 C 372.875 597.464844 372.679688 597.4375 372.457031 597.410156 C 372.625 596.214844 372.765625 595.019531 372.902344 593.855469 C 373.210938 593.882812 373.515625 593.910156 373.820312 593.9375 "/>
<path style=" stroke:none;fill-rule:nonzero;fill:rgb(100%,39.99939%,76.858521%);fill-opacity:1;" d="M 585.257812 478.59375 C 584.617188 477.625 584.3125 477.152344 583.867188 476.484375 C 584.8125 476.34375 585.535156 476.261719 586.867188 476.09375 C 586.203125 477.09375 585.839844 477.679688 585.257812 478.59375 "/>
<path style=" stroke:none;fill-rule:nonzero;fill:rgb(100%,39.99939%,76.858521%);fill-opacity:1;" d="M 736.117188 366 C 737.503906 366.222656 738.921875 366.417969 740.339844 366.613281 C 740.3125 366.78125 740.285156 366.972656 740.257812 367.167969 C 738.839844 366.945312 737.449219 366.722656 736.03125 366.5 C 736.0625 366.335938 736.089844 366.167969 736.117188 366 "/>
</g>
</svg>
